<?xml version="1.0" standalone="no"?> <!DOCTYPE svg PUBLIC "-//W3C//DTD SVG 1.0//EN" "http://www.w3.org/TR/2001/REC-SVG-20010904/DTD/svg10.dtd" > <svg xmlns="http://www.w3.org/2000/svg" width="100%" height="100%">
<defs >
<font id="helveticaltcompressed" horiz-adv-x="751" ><font-face
    font-family="Helvetica LT Compressed"
    units-per-em="2048"
    panose-1="2 11 5 0 0 0 0 0 0 0"
    ascent="2028"
    descent="-512"
    alphabetic="0" />
<missing-glyph horiz-adv-x="1024" d="M102 0H922V1049H102V0ZM119 16V1032H905V16H119Z" />
<glyph unicode=" " glyph-name="space" horiz-adv-x="475" />
<glyph unicode="!" glyph-name="exclam" horiz-adv-x="530" d="M424 428V1458H106V428H424ZM424 0V344H106V0H424Z" />
<glyph unicode="&quot;" glyph-name="quotedbl" horiz-adv-x="682" d="M405 903H651V1458H405V903ZM31 903H276V1458H31V903Z" />
<glyph unicode="#" glyph-name="numbersign" horiz-adv-x="950" d="M854 608H721L750 850H899L905 1049H772L819 1458H645L598 1049H440L487 1458H313L266 1049H102L96 850H244L215 608H51L43 410H192L145 0H319L365 410H524L477 0H651L698 410H848L854 608ZM575
850L549 608H389L418 850H575Z" />
<glyph unicode="$" glyph-name="dollar" horiz-adv-x="950" d="M545 1587H391V1487Q51 1458 45 1122Q47 960 127 858Q205 754 307 676Q410 598 487 518Q524 477 547 428Q567 377 567 315Q567 252 545 229Q520 203 475 205Q385 201 385 315V567H45V301Q47 145 145
63Q242 -18 391 -29V-152H545V-29Q598 -23 661 -2Q725 18 780 59Q838 102 872 178Q907 252 907 365Q905 528 827 643Q750 756 647 838Q545 919 467 991Q430 1028 408 1067Q385 1104 385 1143Q385 1206 410 1231Q432 1253 475 1253Q520 1253 545 1231Q567 1206 567
1143V936H907V1165Q905 1329 801 1405Q698 1477 545 1487V1587Z" />
<glyph unicode="%" glyph-name="percent" horiz-adv-x="1290" d="M848 1487L289 -29H442L999 1487H848ZM727 260Q727 -2 991 0Q1253 -2 1255 260V561Q1253 823 991 821Q727 823 727 561V260ZM1040 217Q1038 145 991 147Q944 145 942 217V604Q942 645 956 659Q969
674 991 674Q1014 674 1028 659Q1040 645 1040 604V217ZM35 897Q35 635 299 637Q561 635 563 897V1198Q561 1460 299 1458Q35 1460 35 1198V897ZM348 854Q346 782 299 784Q252 782 250 854V1241Q250 1282 264 1296Q276 1311 299 1311Q322 1311 336 1296Q348 1282
348 1241V854Z" />
<glyph unicode="&amp;" glyph-name="ampersand" horiz-adv-x="1214" d="M383 602L678 262Q664 229 625 217Q586 205 545 205Q459 205 424 268Q389 328 383 422V602V602ZM508 1253Q565 1251 577 1212Q586 1171 586 1116Q586 1034 567 983Q547 928 498 928Q465 960
442 1010Q420 1057 420 1108Q418 1165 434 1210Q446 1251 508 1253V1253ZM813 819V600H793Q760 643 723 692Q684 741 633 797Q754 817 838 889Q924 962 926 1063V1188Q924 1288 883 1350Q842 1411 774 1440Q709 1470 643 1481Q573 1487 522 1487Q444 1487 367 1474Q289
1460 223 1421Q162 1382 123 1309Q80 1233 80 1112Q80 999 117 928Q149 854 203 803Q104 762 74 676Q41 590 43 475V371Q43 258 88 182Q133 106 201 59Q348 -31 522 -29Q723 -29 872 57V57Q907 18 965 10Q1020 0 1067 0H1208V303H1083Q1128 354 1143 434Q1153 514
1153 575V819H813Z" />
<glyph unicode="&apos;" glyph-name="quotesingle" horiz-adv-x="455" d="M104 903H350V1458H104V903Z" />
<glyph unicode="(" glyph-name="parenleft" horiz-adv-x="606" d="M575 -127Q453 41 391 258Q326 473 326 680Q324 1120 569 1487H258Q25 1098 29 672Q31 225 262 -127H575Z" />
<glyph unicode=")" glyph-name="parenright" horiz-adv-x="606" d="M344 -127Q573 225 577 672Q580 1098 348 1487H37Q283 1120 281 680Q281 473 219 258Q158 41 31 -127H344Z" />
<glyph unicode="*" glyph-name="asterisk" horiz-adv-x="950" d="M389 1245V1245L190 1315V1315L133 1147L340 1087L199 907L340 803V803L473 993V993L614 803V803L752 909L604 1089L815 1159L758 1323V1323L559 1245V1245V1458H389V1245Z" />
<glyph unicode="+" glyph-name="plus" horiz-adv-x="1229" d="M475 725H94V446H475V66H754V446H1135V725H754V1106H475V725Z" />
<glyph unicode="," glyph-name="comma" horiz-adv-x="475" d="M246 -262L438 344H113L35 -262H246Z" />
<glyph unicode="-" glyph-name="hyphenminus" horiz-adv-x="530" d="M37 530H491V772H37V530Z" />
<glyph unicode="." glyph-name="period" horiz-adv-x="475" d="M395 0V344H78V0H395Z" />
<glyph unicode="/" glyph-name="slash" horiz-adv-x="530" d="M367 1487L4 -29H164L526 1487H367Z" />
<glyph unicode="0" glyph-name="zero" horiz-adv-x="950" d="M565 303Q565 252 541 229Q514 205 473 205Q385 203 383 303V1155Q383 1210 410 1233Q432 1253 473 1253Q561 1255 565 1155V303ZM905 1061Q903 1313 780 1403Q659 1489 479 1487Q408 1487 334 1470Q256
1450 190 1403Q125 1358 86 1274Q43 1190 43 1061V369Q45 162 164 68Q281 -29 475 -29Q895 -33 905 369V1061Z" />
<glyph unicode="1" glyph-name="one" horiz-adv-x="950" d="M90 1081H330V0H670V1458H383Q360 1364 272 1329Q182 1294 90 1294V1081Z" />
<glyph unicode="2" glyph-name="two" horiz-adv-x="950" d="M373 213Q373 258 391 291Q408 322 426 354Q485 453 567 537Q645 620 721 702Q797 784 848 883Q895 977 897 1102Q897 1218 862 1294Q825 1368 762 1411Q700 1454 625 1472Q551 1487 475 1487Q403 1487
326 1477Q248 1466 182 1427Q117 1388 76 1311Q33 1233 33 1098V938H373V1149Q373 1253 465 1253Q555 1253 557 1149Q555 1042 475 942Q397 842 295 733Q192 625 115 491Q35 358 33 180V0H897V213H373Z" />
<glyph unicode="3" glyph-name="three" horiz-adv-x="950" d="M47 561V311Q51 -33 469 -29Q653 -29 774 55Q899 137 901 324V485Q901 555 887 604Q872 653 844 682Q788 739 688 754Q793 786 848 852Q901 919 901 1069V1161Q897 1343 766 1417Q637 1487 469 1487Q410
1487 338 1474Q266 1460 199 1421Q133 1384 92 1317Q47 1249 47 1143V934H387V1096Q387 1124 389 1151Q391 1180 399 1200Q412 1251 473 1253Q559 1249 561 1163V993Q559 919 518 893Q473 864 416 864H285V631H399Q471 633 516 614Q539 602 551 575Q561 549 561
500V315Q561 272 545 240Q524 205 473 205Q422 205 405 240Q385 272 387 315V561H47Z" />
<glyph unicode="4" glyph-name="four" horiz-adv-x="950" d="M6 334H498V0H815V334H928V567H815V1458H403L6 567V334ZM494 1155H498V567H231L494 1155Z" />
<glyph unicode="5" glyph-name="five" horiz-adv-x="950" d="M41 580V301Q43 143 172 59Q293 -27 473 -29Q645 -31 774 61Q903 154 907 385V725Q899 1071 608 1069Q483 1071 354 969H350Q358 1108 365 1245H897V1458H41V690H381Q381 727 412 760Q440 790 475 793Q565
788 567 680V317Q567 266 543 238Q518 205 473 205Q383 207 381 317V580H41Z" />
<glyph unicode="6" glyph-name="six" horiz-adv-x="950" d="M903 942V1124Q899 1489 487 1487Q317 1487 186 1403Q49 1319 45 1135V383Q51 -33 496 -29Q567 -29 639 -8Q711 12 770 55Q829 100 868 174Q903 244 903 348V592Q901 733 823 805Q743 874 623 874Q551
874 496 850Q438 825 385 778V778V1124Q385 1178 401 1216Q420 1251 473 1253Q530 1251 549 1216Q563 1178 563 1124V942H903ZM483 608Q565 606 563 534V272Q563 207 477 205Q383 207 385 268V526Q385 604 483 608V608Z" />
<glyph unicode="7" glyph-name="seven" horiz-adv-x="950" d="M553 1245L74 0H436L915 1251V1458H18V1245H553Z" />
<glyph unicode="8" glyph-name="eight" horiz-adv-x="950" d="M915 465Q915 553 899 608Q881 659 848 690Q817 721 776 737Q733 752 686 760V768Q784 790 850 860Q913 928 915 1014V1143Q915 1243 881 1311Q844 1376 782 1415Q723 1454 647 1472Q569 1487 485
1487Q416 1487 340 1472Q262 1458 192 1419Q123 1380 82 1313Q35 1243 35 1139V1028Q37 911 106 848Q141 817 180 799Q221 778 262 768V760Q170 747 104 682Q35 616 35 506V348Q35 158 154 66Q270 -29 465 -29Q655 -29 782 59Q913 147 915 340V465ZM375 545Q371
637 473 641Q577 639 575 543V283Q573 201 479 205Q434 205 405 221Q375 238 375 283V545ZM375 1157Q373 1249 475 1253Q575 1253 575 1155V948Q575 889 549 872Q520 852 473 854Q430 852 403 872Q375 889 375 940V1157Z" />
<glyph unicode="9" glyph-name="nine" horiz-adv-x="950" d="M45 516V334Q47 -31 461 -29Q633 -29 766 55Q899 141 903 324V1075Q897 1491 453 1487Q383 1487 311 1468Q240 1448 180 1403Q49 1317 45 1110V866Q47 729 129 657Q207 584 326 584Q401 584 457 610Q512
637 563 680V680V334Q563 281 549 246Q532 205 475 205Q418 205 401 246Q385 281 385 334V516H45ZM465 850Q383 852 385 924V1186Q385 1251 471 1253Q563 1249 563 1190V932Q561 852 465 850V850Z" />
<glyph unicode=":" glyph-name="colon" horiz-adv-x="475" d="M395 0V344H78V0H395ZM395 827V1171H78V827H395Z" />
<glyph unicode=";" glyph-name="semicolon" horiz-adv-x="475" d="M246 -262L438 344H113L35 -262H246ZM395 827V1171H78V827H395Z" />
<glyph unicode="&lt;" glyph-name="less" horiz-adv-x="1229" d="M1075 111V319L436 586L1075 852V1061V1061L154 672V500L1075 111V111Z" />
<glyph unicode="=" glyph-name="equal" horiz-adv-x="1229" d="M1135 692V971H94V692H1135ZM1135 201V479H94V201H1135Z" />
<glyph unicode="&gt;" glyph-name="greater" horiz-adv-x="1229" d="M154 111V111L1075 500V672L154 1061V1061V852L793 586L154 319V111Z" />
<glyph unicode="?" glyph-name="question" horiz-adv-x="950" d="M631 432V594Q637 678 672 723Q707 770 752 807Q797 846 829 907Q862 967 862 1081V1173Q856 1489 483 1487Q328 1487 211 1419Q90 1347 88 1180V946H405V1188Q403 1227 418 1253Q430 1280 471
1280Q516 1280 530 1253Q539 1227 539 1188V1073Q532 1005 500 967Q465 930 422 895Q381 860 348 799Q313 733 313 616V432H631ZM631 0V344H313V0H631Z" />
<glyph unicode="@" glyph-name="at" horiz-adv-x="1638" d="M790 508Q719 508 682 559Q641 606 641 678Q641 762 696 823Q752 885 836 887Q909 887 952 842Q993 799 993 723Q993 635 940 573Q885 510 790 508V508ZM1051 993V993Q960 1114 807 1112Q623 1108 516
969Q408 831 405 643Q408 491 508 387Q602 279 735 276Q788 276 840 307Q891 336 926 379V379Q934 328 965 303Q993 276 1034 276Q1079 276 1165 305Q1247 332 1335 397Q1423 465 1485 580Q1546 692 1548 866Q1542 1155 1333 1321Q1235 1403 1110 1446Q985 1487
852 1487Q530 1483 315 1270Q94 1057 90 721Q94 385 319 182Q541 -25 864 -29Q1235 -29 1452 270H1257Q1108 149 881 147Q625 149 469 301Q309 451 307 721Q309 981 455 1139Q596 1296 846 1298Q1077 1298 1223 1175Q1366 1051 1368 801Q1366 639 1309 563Q1253
487 1184 487Q1157 489 1159 532Q1161 573 1169 604L1257 1092H1069L1051 993Z" />
<glyph unicode="A" glyph-name="A" horiz-adv-x="950" d="M401 580L461 1229H465L524 580H401ZM270 1458L23 0H309L365 358H549L588 0H926L737 1458H270Z" />
<glyph unicode="B" glyph-name="B" horiz-adv-x="950" d="M385 657Q440 657 475 655Q510 651 530 633Q565 600 565 448Q565 393 565 346Q563 301 545 266Q530 236 494 219Q455 203 385 209V657ZM45 0H389Q524 0 623 10Q721 20 782 59Q846 98 876 182Q905 266 905
416Q905 487 899 553Q891 614 866 661Q821 762 664 764V778Q809 797 860 889Q907 981 905 1104Q905 1235 868 1309Q829 1380 758 1413Q686 1446 594 1454Q502 1458 389 1458H45V0ZM385 1249Q448 1255 485 1245Q522 1237 539 1212Q567 1163 565 1057Q565 977 553
938Q541 899 516 885Q491 872 459 870Q426 868 385 866V1249Z" />
<glyph unicode="C" glyph-name="C" horiz-adv-x="950" d="M567 567L565 319Q565 274 549 242Q528 205 473 205Q422 205 405 242Q385 274 385 319V1139Q385 1186 405 1221Q422 1253 473 1253Q528 1253 549 1221Q565 1186 565 1139V938H905V1098Q903 1329 784 1411Q664
1489 473 1487Q389 1487 313 1470Q236 1450 176 1401Q117 1352 82 1270Q45 1188 45 1061V397Q47 154 176 61Q236 12 313 -8Q389 -29 473 -29Q905 -29 905 375V567H567Z" />
<glyph unicode="D" glyph-name="D" horiz-adv-x="950" d="M45 0H395Q709 0 811 117Q866 176 887 258Q905 338 905 440V960Q907 1280 795 1374Q678 1462 395 1458H45V0ZM385 1249Q448 1249 487 1241Q524 1233 541 1204Q567 1155 565 1012V412Q565 360 563 324Q557
285 539 260Q506 209 385 209V1249Z" />
<glyph unicode="E" glyph-name="E" horiz-adv-x="758" d="M745 0V221H381V696H733V917H381V1237H745V1458H41V0H745Z" />
<glyph unicode="F" glyph-name="F" horiz-adv-x="758" d="M381 0V696H733V917H381V1237H745V1458H41V0H381Z" />
<glyph unicode="G" glyph-name="G" horiz-adv-x="950" d="M688 74L707 0H905V735H436V514H565V319Q565 274 549 242Q528 205 475 205Q422 205 403 242Q383 274 385 319V1139Q385 1186 405 1221Q424 1253 475 1253Q528 1253 549 1221Q565 1186 565 1139V936H905L907
1089Q895 1495 475 1487Q391 1487 315 1470Q238 1450 176 1401Q117 1352 82 1270Q45 1188 45 1061V397Q45 154 137 61Q227 -31 393 -29Q469 -29 549 -8Q631 12 688 74V74Z" />
<glyph unicode="H" glyph-name="H" horiz-adv-x="950" d="M385 0V696H565V0H905V1458H565V917H385V1458H45V0H385Z" />
<glyph unicode="I" glyph-name="I" horiz-adv-x="418" d="M379 0V1458H39V0H379Z" />
<glyph unicode="J" glyph-name="J" horiz-adv-x="950" d="M551 1458V352Q553 303 543 256Q534 233 516 221Q498 205 463 205Q399 207 387 256Q379 279 377 305Q375 330 375 352V563H35V328Q35 213 84 143Q129 72 199 35Q268 -2 340 -14Q410 -29 461 -29Q598 -27
684 8Q768 43 813 98Q858 154 876 225Q891 297 891 371V1458H551Z" />
<glyph unicode="K" glyph-name="K" horiz-adv-x="950" d="M385 0V739H389L594 0H930L700 815L928 1458H604L389 797H385V1458H45V0H385Z" />
<glyph unicode="L" glyph-name="L" horiz-adv-x="758" d="M750 0V221H381V1458H41V0H750Z" />
<glyph unicode="M" glyph-name="M" horiz-adv-x="1366" d="M315 1245H319L516 0H815L1012 1245H1016V0H1323V1458H833L690 422H686L543 1458H43V0H315V1245Z" />
<glyph unicode="N" glyph-name="N" horiz-adv-x="1024" d="M33 0H299V1218H303L555 0H991V1458H725V397H721L504 1458H33V0Z" />
<glyph unicode="O" glyph-name="O" horiz-adv-x="950" d="M385 1139Q385 1186 405 1221Q424 1253 475 1253Q528 1253 549 1221Q565 1186 565 1139V319Q565 274 549 242Q528 205 475 205Q424 205 405 242Q385 274 385 319V1139ZM905 1061Q905 1188 870 1270Q836
1352 776 1401Q717 1450 639 1470Q561 1487 475 1487Q391 1487 315 1470Q238 1450 176 1401Q117 1352 82 1270Q45 1188 45 1061V397Q47 154 176 61Q301 -31 475 -29Q651 -31 776 61Q901 154 905 397V1061Z" />
<glyph unicode="P" glyph-name="P" horiz-adv-x="950" d="M385 1249H438Q524 1249 547 1196Q567 1139 565 1010Q567 883 547 827Q524 770 438 772H385V1249ZM385 0V563H510Q668 563 784 641Q903 717 905 879V1145Q903 1331 786 1397Q668 1460 461 1458H45V0H385Z" />
<glyph unicode="Q" glyph-name="Q" horiz-adv-x="950" d="M385 1139Q385 1186 405 1221Q424 1253 475 1253Q528 1253 549 1221Q565 1186 565 1139V319Q565 274 549 242Q528 205 475 205Q424 205 405 242Q385 274 385 319V1139ZM885 -10H721V27Q805 70 856 160Q903
248 905 397V1061Q905 1188 870 1270Q836 1352 776 1401Q717 1450 639 1470Q561 1487 475 1487Q391 1487 315 1470Q238 1450 176 1401Q117 1352 82 1270Q45 1188 45 1061V397Q47 154 176 61Q301 -31 475 -29Q504 -29 530 -27Q539 -178 623 -223Q702 -264 885 -262V-10Z"
/>
<glyph unicode="R" glyph-name="R" horiz-adv-x="950" d="M381 0V666H436Q483 666 522 629Q557 590 559 512V203Q559 158 569 104Q577 47 608 0H950Q919 47 911 104Q899 158 899 203V508Q899 661 831 723Q764 782 639 782V786Q903 840 899 1118Q897 1341 764 1405Q627
1462 383 1458H41V0H381ZM381 1249Q494 1249 530 1208Q561 1163 559 1063Q561 962 528 919Q496 874 381 874V1249Z" />
<glyph unicode="S" glyph-name="S" horiz-adv-x="950" d="M905 936V1165Q903 1345 780 1419Q659 1489 481 1487Q283 1487 166 1405Q47 1321 45 1122Q47 950 127 846Q205 741 307 668Q356 631 403 594Q451 557 487 518Q563 438 565 315Q565 252 543 229Q518 203
475 205Q383 201 385 315V567H45V297Q47 113 178 41Q305 -31 473 -29Q903 -31 905 373Q903 541 827 649Q750 758 647 836Q598 874 551 911Q504 948 467 983Q430 1020 408 1059Q385 1096 385 1141Q383 1196 403 1225Q422 1253 475 1253Q567 1251 565 1141V936H905Z"
/>
<glyph unicode="T" glyph-name="T" horiz-adv-x="872" d="M266 1237V0H606V1237H844V1458H29V1237H266Z" />
<glyph unicode="U" glyph-name="U" horiz-adv-x="950" d="M905 1458H565V408Q565 319 555 264Q541 205 473 205Q412 205 397 264Q383 319 385 408V1458H45V448Q45 379 55 297Q63 217 102 141Q143 70 231 20Q319 -27 473 -29Q709 -29 807 80Q903 186 905 416V1458Z" />
<glyph unicode="V" glyph-name="V" horiz-adv-x="950" d="M242 0H688L932 1458H614L467 334H463L381 1458H16L242 0Z" />
<glyph unicode="W" glyph-name="W" horiz-adv-x="1442" d="M199 0H590L711 1124H715L846 0H1243L1433 1458H1132L1026 420H1022L930 1458H561L430 420H426L354 1458H6L199 0Z" />
<glyph unicode="X" glyph-name="X" horiz-adv-x="950" d="M453 584H457L573 0H934L731 735L934 1458H625L510 879H506L389 1458H18L221 782L16 0H326L453 584Z" />
<glyph unicode="Y" glyph-name="Y" horiz-adv-x="950" d="M305 0H645V537L934 1458H602L477 879H473L348 1458H16L305 537V0Z" />
<glyph unicode="Z" glyph-name="Z" horiz-adv-x="758" d="M747 0V221H350L747 1243V1458H10V1237H391L10 250V0H747Z" />
<glyph unicode="[" glyph-name="bracketleft" horiz-adv-x="606" d="M549 -127V102H340V1257H547V1487H57V-127H549Z" />
<glyph unicode="\" glyph-name="backslash" horiz-adv-x="569" d="M-98 1487L508 -29H668L61 1487H-98Z" />
<glyph unicode="]" glyph-name="bracketright" horiz-adv-x="606" d="M549 -127V1487H59V1257H266V102H57V-127H549Z" />
<glyph unicode="^" glyph-name="asciicircum" horiz-adv-x="1229" d="M387 711L614 1218V1218L840 711H1079L723 1458H506L149 711H387Z" />
<glyph unicode="_" glyph-name="underscore" horiz-adv-x="1024" d="M1024 -256V-154H0V-256H1024Z" />
<glyph unicode="`" glyph-name="grave" horiz-adv-x="418" d="M356 1309L156 1597H-80L219 1309H356Z" />
<glyph unicode="a" glyph-name="a" horiz-adv-x="872" d="M369 428Q369 496 414 530Q457 561 504 592V592V389Q504 313 491 276Q479 240 428 240Q405 240 389 256Q369 270 369 301V428ZM504 0H827V866Q827 956 795 1018Q764 1079 707 1116Q590 1186 436 1186Q285
1186 168 1116Q47 1042 45 866V758H369V887Q369 926 383 950Q397 973 436 973Q477 973 491 950Q504 926 504 887Q502 809 432 764Q401 739 360 721Q317 700 274 678Q231 657 190 633Q152 608 117 575Q86 545 66 502Q45 459 45 399V225Q49 -12 272 -14Q369 -12 422
33Q473 74 500 137H504V0Z" />
<glyph unicode="b" glyph-name="b" horiz-adv-x="872" d="M369 840Q371 917 436 919Q502 917 504 840V332Q502 252 436 252Q371 252 369 332V840ZM45 0H369V147H373Q387 61 446 25Q506 -14 596 -14Q664 -14 709 14Q754 39 780 80Q807 123 819 176Q827 225 827
279V926Q827 1042 778 1114Q725 1184 602 1186Q420 1182 373 1012H369V1458H45V0Z" />
<glyph unicode="c" glyph-name="c" horiz-adv-x="872" d="M504 758H827V856Q825 1042 711 1116Q596 1188 434 1186Q49 1175 45 858V311Q51 -16 434 -14Q610 -14 717 57Q825 127 827 291V463H504V281Q504 248 489 225Q475 199 436 199Q399 199 385 225Q369 248
369 281V891Q369 926 385 950Q399 973 436 973Q475 973 489 950Q504 926 504 891V758Z" />
<glyph unicode="d" glyph-name="d" horiz-adv-x="872" d="M369 840Q371 917 436 919Q502 917 504 840V332Q502 252 436 252Q371 252 369 332V840ZM504 0H827V1458H504V1012H500Q453 1182 270 1186Q149 1184 98 1114Q45 1042 45 926V279Q43 168 96 80Q147 -10 276
-14Q369 -14 428 25Q487 61 500 147H504V0Z" />
<glyph unicode="e" glyph-name="e" horiz-adv-x="872" d="M827 549V856Q825 1042 711 1116Q598 1188 436 1186Q47 1182 45 856V297Q47 135 164 61Q276 -14 436 -14Q612 -14 719 57Q825 127 827 291V463H504V311Q504 260 489 231Q475 199 436 199Q369 201 369 311V549H827ZM369
743V903Q369 973 436 973Q504 973 504 903V743H369Z" />
<glyph unicode="f" glyph-name="f" horiz-adv-x="530" d="M86 958V0H410V958H502V1171H410Q408 1208 428 1227Q444 1245 502 1245V1458H295Q186 1456 137 1388Q113 1358 100 1319Q86 1282 86 1247V1171H14V958H86Z" />
<glyph unicode="g" glyph-name="g" horiz-adv-x="872" d="M369 831Q369 866 383 893Q397 919 436 919Q477 919 491 893Q504 866 504 831V496Q504 463 491 436Q477 408 436 408Q397 408 383 436Q369 463 369 496V831ZM827 1171H502V1020H498Q467 1102 410 1145Q352
1186 256 1186Q172 1186 111 1122Q47 1057 45 915V436Q43 307 102 227Q162 143 301 141Q383 141 436 190Q489 238 498 313H504V23Q506 -45 436 -49Q367 -45 369 23V100H45V-14Q45 -111 145 -184Q242 -260 428 -262Q485 -262 553 -248Q618 -235 682 -197Q745 -158
786 -82Q827 -6 827 113V1171Z" />
<glyph unicode="h" glyph-name="h" horiz-adv-x="872" d="M369 0V793Q369 844 379 883Q389 917 436 919Q485 917 496 883Q504 844 504 793V0H827V907Q827 1038 778 1112Q725 1184 602 1186Q424 1184 373 1026H369V1458H45V0H369Z" />
<glyph unicode="i" glyph-name="i" horiz-adv-x="418" d="M371 0V1171H47V0H371ZM371 1251V1458H47V1251H371Z" />
<glyph unicode="j" glyph-name="j" horiz-adv-x="418" d="M371 1171H47V82Q47 2 29 -25Q6 -49 -55 -49H-98V-262H127Q256 -262 315 -209Q371 -156 371 -27V1171ZM47 1458V1251H371V1458H47Z" />
<glyph unicode="k" glyph-name="k" horiz-adv-x="872" d="M369 0V612H373L539 0H868L666 647L852 1171H539L373 637H369V1458H45V0H369Z" />
<glyph unicode="l" glyph-name="l" horiz-adv-x="418" d="M371 0V1458H47V0H371Z" />
<glyph unicode="m" glyph-name="m" horiz-adv-x="1290" d="M360 1171H49V0H360V813Q360 854 371 887Q381 919 424 919Q469 919 481 887Q489 854 489 813V0H801V813Q801 854 811 887Q821 919 864 919Q909 919 922 887Q930 854 930 813V0H1241V938Q1241 1049 1196
1118Q1149 1184 1028 1186Q940 1186 881 1141Q821 1098 805 1016H801Q766 1186 590 1186Q414 1184 365 1016H360V1171Z" />
<glyph unicode="n" glyph-name="n" horiz-adv-x="872" d="M369 1171H45V0H369V813Q367 854 381 887Q395 919 438 919Q483 919 496 887Q504 854 504 813V0H827V917Q827 1182 608 1186Q418 1184 373 1026H369V1171Z" />
<glyph unicode="o" glyph-name="o" horiz-adv-x="872" d="M369 891Q369 926 385 950Q399 973 436 973Q475 973 489 950Q504 926 504 891V281Q504 248 489 225Q475 199 436 199Q399 199 385 225Q369 248 369 281V891ZM827 856Q823 1182 436 1186Q47 1182 45 856V297Q47
135 164 61Q276 -14 436 -14Q598 -14 711 61Q825 135 827 297V856Z" />
<glyph unicode="p" glyph-name="p" horiz-adv-x="872" d="M369 840Q371 917 436 919Q502 917 504 840V332Q502 252 436 252Q371 252 369 332V840ZM369 1171H45V-262H369V154H373Q420 -12 602 -14Q725 -12 778 59Q827 129 827 240V887Q827 1003 780 1094Q754 1137
709 1161Q664 1186 596 1186Q506 1186 446 1149Q387 1110 373 1018H369V1171Z" />
<glyph unicode="q" glyph-name="q" horiz-adv-x="872" d="M369 840Q371 917 436 919Q502 917 504 840V332Q502 252 436 252Q371 252 369 332V840ZM827 1171H504V1018H500Q487 1110 428 1149Q369 1186 276 1186Q147 1184 96 1094Q43 1003 45 887V240Q45 129 98
59Q149 -12 270 -14Q453 -12 500 154H504V-262H827V1171Z" />
<glyph unicode="r" glyph-name="r" horiz-adv-x="872" d="M369 1171H45V0H369V823Q369 862 383 891Q397 917 436 919Q477 917 491 891Q504 862 504 823V539H827V956Q827 1051 780 1118Q729 1184 608 1186Q520 1186 465 1141Q408 1096 375 1018H369V1171Z" />
<glyph unicode="s" glyph-name="s" horiz-adv-x="872" d="M827 758V893Q825 1040 719 1114Q612 1186 424 1186Q260 1186 156 1112Q47 1034 45 860Q47 723 117 651Q152 614 190 588Q231 561 274 537Q317 516 360 494Q401 469 432 442Q467 416 485 379Q504 340 504
287Q504 250 489 225Q475 199 436 199Q399 199 385 225Q369 250 369 287V463H45V276Q47 123 152 53Q254 -14 412 -14Q819 -12 821 340Q821 414 805 467Q786 520 754 559Q723 598 682 629Q639 659 596 680Q555 704 514 727Q475 750 440 770Q410 795 389 821Q369
848 369 885Q367 969 436 973Q506 969 504 885V758H827Z" />
<glyph unicode="t" glyph-name="t" horiz-adv-x="606" d="M125 958V244Q123 129 166 66Q209 0 326 0H590V213H526Q500 213 485 223Q471 229 461 242Q446 266 448 319V958H590V1171H448V1382H125V1171H16V958H125Z" />
<glyph unicode="u" glyph-name="u" horiz-adv-x="872" d="M504 0H827V1171H504V358Q504 319 494 287Q479 252 434 252Q389 252 379 287Q369 319 369 358V1171H45V254Q45 -10 264 -14Q455 -12 500 145H504V0Z" />
<glyph unicode="v" glyph-name="v" horiz-adv-x="872" d="M246 0H639L850 1171H571L463 262H459L350 1171H23L246 0Z" />
<glyph unicode="w" glyph-name="w" horiz-adv-x="1366" d="M190 0H573L680 934H684L790 0H1186L1354 1171H1069L997 266H993L885 1171H526L424 266H420L334 1171H10L190 0Z" />
<glyph unicode="x" glyph-name="x" horiz-adv-x="872" d="M408 498H412L524 0H864L657 610L848 1171H559L459 719H455L354 1171H20L205 610L8 0H295L408 498Z" />
<glyph unicode="y" glyph-name="y" horiz-adv-x="872" d="M25 1171L279 35Q287 6 287 -16Q287 -33 276 -39Q262 -49 229 -49H61V-262H322Q539 -262 584 -63L846 1171H573L465 362H461L352 1171H25Z" />
<glyph unicode="z" glyph-name="z" horiz-adv-x="682" d="M676 0V213H352L666 991V1171H6V958H307L6 213V0H676Z" />
<glyph unicode="{" glyph-name="braceleft" horiz-adv-x="682" d="M57 602Q86 602 111 600Q137 594 156 582Q178 571 190 547Q201 524 201 481V111Q201 49 233 6Q262 -39 305 -70Q350 -98 397 -111Q442 -127 473 -127H625V29H602Q563 29 539 41Q514 51 502 68Q489
86 487 104Q483 123 483 139V504Q483 565 455 602Q426 639 383 655Q342 674 299 680Q254 686 225 686V690Q291 690 383 725Q426 743 455 776Q483 807 483 856V1218Q481 1257 502 1294Q514 1313 539 1323Q563 1331 602 1331H625V1487H473Q399 1487 305 1431Q262
1403 233 1360Q201 1315 201 1249V893Q199 817 156 795Q113 772 57 772V602Z" />
<glyph unicode="|" glyph-name="bar" horiz-adv-x="455" d="M88 -512H367V1536H88V-512Z" />
<glyph unicode="}" glyph-name="braceright" horiz-adv-x="682" d="M625 772Q571 772 528 795Q481 817 481 893V1249Q481 1315 453 1360Q424 1403 379 1431Q336 1462 291 1474Q244 1487 209 1487H57V1331H80Q160 1329 182 1294Q195 1278 197 1259Q199 1237 199
1218V856Q199 807 231 776Q260 743 303 725Q348 707 389 700Q430 692 457 690V686Q395 688 303 655Q260 639 231 602Q199 565 199 504V139Q199 104 182 68Q160 29 80 29H57V-127H209Q283 -127 379 -70Q424 -39 453 6Q481 49 481 111V481Q481 561 528 582Q551 594
575 600Q600 602 625 602V772Z" />
<glyph unicode="~" glyph-name="asciitilde" horiz-adv-x="1229" d="M1014 709V709Q981 653 938 610Q895 563 833 561Q793 561 739 586Q684 608 625 635Q565 664 510 682Q451 700 397 700Q297 698 236 645Q174 592 141 524L215 328V328Q240 385 281 430Q319 473
387 475Q459 475 516 455Q573 432 623 403Q674 375 725 356Q776 336 831 336Q926 336 985 393Q1016 420 1042 451Q1067 481 1087 512L1014 709Z" />
<glyph unicode="&#x80;" glyph-name="Euro" horiz-adv-x="950" d="M152 492H-12L45 651H152V815H-12L45 975H152V1061Q152 1104 155 1145T170 1226T201 1302T256 1374Q296 1414 341 1436T432 1470T522 1484T604 1487Q652 1487 705 1482T815 1456Q860 1439 892
1418T950 1370L856 1133Q836 1167 812 1189T764 1225Q735 1240 706 1246T647 1253Q590 1253 559 1235T514 1194Q499 1168 496 1133T492 1061V975H809L752 815H492V651H715L657 492H492V406Q492 370 498 331T528 260Q543 242 560 231T594 214T628 207T659 205Q695
205 726 212T784 231Q829 250 860 274T909 319V53Q881 33 855 21T791 -2Q740 -16 689 -22T580 -29Q544 -29 505 -26T425 -11T346 19T272 70Q229 109 205 154T169 245T155 330T152 397V492Z" />
</font>
</defs>
</svg>
