<?xml version="1.0" standalone="no"?> <!DOCTYPE svg PUBLIC "-//W3C//DTD SVG 1.0//EN" "http://www.w3.org/TR/2001/REC-SVG-20010904/DTD/svg10.dtd" > <svg xmlns="http://www.w3.org/2000/svg" width="100%" height="100%">
<defs >
<font id="helveticacebold" horiz-adv-x="980" ><font-face
    font-family="Helvetica CE"
    units-per-em="2048"
    panose-1="2 11 8 4 2 1 2 2 2 4"
    ascent="2080"
    descent="-614"
    alphabetic="0" />
<missing-glyph horiz-adv-x="1536" d="M256 0V1280H1280V0H256ZM288 32H1248V1248H288V32Z" />
<glyph unicode=" " glyph-name="space" horiz-adv-x="569" />
<glyph unicode="!" glyph-name="exclam" horiz-adv-x="682" d="M187 1470H494V1096L414 408H267L187 1096V1470ZM187 0V283H494V0H187Z" />
<glyph unicode="&quot;" glyph-name="quotedbl" horiz-adv-x="971" d="M160 1474H433L385 865H205L160 1474ZM539 1474H812L764 865H584L539 1474Z" />
<glyph unicode="#" glyph-name="numbersign" horiz-adv-x="1139" d="M1 401L46 569H250L328 860H124L169 1029H373L482 1432H681L572 1029H738L845 1432H1044L937 1029H1139L1094 860H892L812 569H1016L970 401H767L660 0H461L568 401H404L295 0H96L205 401H1ZM449
569H613L693 860H527L449 569Z" />
<glyph unicode="$" glyph-name="dollar" horiz-adv-x="1139" d="M789 1036Q779 1150 733 1199T617 1249V858Q774 807 839 775Q925 732 972 682T1047 561T1074 406Q1074 307 1039 225T939 88T780 3Q718 -18 623 -29V-231H523V-33Q391 -30 287 29T130 188T66 444H332Q343
301 393 242T523 180V616Q376 661 304 695T187 776T117 889T91 1037Q91 1144 127 1225T223 1356T367 1434Q429 1454 523 1462V1591H617V1462Q739 1453 818 1420T945 1330T1019 1207T1055 1036H789ZM523 1249Q441 1237 400 1191T359 1075Q359 998 404 949Q436 915
523 887V1249ZM617 180Q701 182 754 236T808 371Q808 453 766 503T617 582V180Z" />
<glyph unicode="%" glyph-name="percent" horiz-adv-x="1821" d="M118 1124Q118 1222 157 1311T274 1448T455 1495Q597 1495 691 1395T785 1121Q785 948 693 850T454 752Q355 752 277 798T158 932T118 1124ZM317 1122Q317 1003 361 946Q394 903 452 903Q510 903
549 953T588 1122Q588 1238 549 1287T451 1337Q393 1337 355 1289T317 1122ZM1225 1493H1380L577 -44H422L1225 1493ZM1025 338Q1025 437 1064 526T1181 662T1362 710Q1504 710 1598 610T1693 336Q1693 163 1600 65T1361 -33Q1262 -33 1184 13T1065 146T1025 338ZM1224
337Q1224 218 1268 161Q1301 118 1359 118Q1417 118 1456 168T1495 336Q1495 453 1456 502T1358 552Q1300 552 1262 504T1224 337Z" />
<glyph unicode="&amp;" glyph-name="ampersand" horiz-adv-x="1479" d="M1338 764Q1330 646 1291 536T1170 322L1434 0H1090L990 127Q898 42 809 5T606 -33Q454 -33 341 19T169 170T111 389Q111 465 130 523T188 632T276 725T424 825Q358 904 325 979T291 1131Q291
1222 339 1300T478 1420T672 1463Q777 1463 863 1421T995 1301T1041 1134Q1041 1027 985 943T799 780L1008 522Q1069 606 1084 764H1338ZM652 950Q730 1002 758 1044T787 1139Q787 1187 755 1218T667 1249Q611 1249 578 1217T545 1136Q545 1099 564 1063T652 950ZM572
643Q501 598 471 571Q431 535 412 497T393 409Q393 325 456 265T612 205Q742 205 842 307L572 643Z" />
<glyph unicode="&apos;" glyph-name="quotesingle" horiz-adv-x="487" d="M107 1474H380L330 865H157L107 1474Z" />
<glyph unicode="(" glyph-name="parenleft" horiz-adv-x="682" d="M645 1470Q544 1296 499 1190Q441 1054 410 904T379 552Q379 311 425 129T620 -356H393Q292 -174 240 -55Q167 115 132 259T96 548Q96 711 146 894T279 1237Q333 1343 428 1470H645Z" />
<glyph unicode=")" glyph-name="parenright" horiz-adv-x="682" d="M37 -356Q138 -182 183 -75Q240 61 271 210T303 562Q303 804 256 986T62 1470H289Q390 1288 442 1169Q515 1000 550 856T586 566Q586 403 536 220T403 -123Q349 -228 254 -356H37Z" />
<glyph unicode="*" glyph-name="asterisk" horiz-adv-x="797" d="M312 1229V1470H484V1229L691 1298L742 1149L525 1090L666 885L537 795L398 981L257 795L128 885L271 1090L56 1149L101 1298L312 1229Z" />
<glyph unicode="+" glyph-name="plus" horiz-adv-x="1196" d="M476 0V423H61V654H476V1076H720V654H1135V423H720V0H476Z" />
<glyph unicode="," glyph-name="comma" horiz-adv-x="569" d="M131 0V307H438V41Q438 -82 399 -159T287 -284Q233 -318 131 -344V-236Q220 -205 257 -155T303 0H131Z" />
<glyph unicode="-" glyph-name="hyphen" horiz-adv-x="682" d="M55 440V707H626V440H55Z" />
<glyph unicode="." glyph-name="period" horiz-adv-x="569" d="M131 0V307H438V0H131Z" />
<glyph unicode="/" glyph-name="slash" horiz-adv-x="569" d="M451 1519H688L115 0H-120L451 1519Z" />
<glyph unicode="0" glyph-name="zero" horiz-adv-x="1139" d="M68 715Q68 902 98 1051Q118 1150 153 1220T243 1345T374 1431T563 1462Q746 1462 865 1371T1028 1114T1072 771Q1072 596 1045 440T977 205T877 76T740 -4T573 -33Q468 -33 388 -8T252 69T159 188T100
363Q68 520 68 715ZM363 717Q363 477 381 384T447 245T574 198Q646 198 693 245T759 385T777 714Q777 953 759 1046T692 1185T566 1231Q494 1231 447 1185T381 1045T363 717Z" />
<glyph unicode="1" glyph-name="one" horiz-adv-x="1139" d="M802 1462V0H507V1006H169V1194Q318 1198 396 1223T518 1310T566 1462H802Z" />
<glyph unicode="2" glyph-name="two" horiz-adv-x="1139" d="M1067 254V0H68Q78 111 96 182T147 309T233 422Q304 496 466 618Q629 740 665 775Q724 830 750 883T777 1015Q777 1080 752 1130T680 1205T578 1231Q500 1231 454 1200T388 1112T367 944H84Q94 1128
151 1239T317 1406T570 1462Q712 1462 831 1405T1011 1238T1072 1002Q1072 891 1034 808T936 664Q877 603 735 503Q502 339 464 301Q439 277 437 254H1067Z" />
<glyph unicode="3" glyph-name="three" horiz-adv-x="1139" d="M447 639V840Q557 839 606 854Q674 874 709 923T744 1045Q744 1132 695 1181T560 1231Q464 1231 413 1176T361 995H95Q105 1100 125 1159Q156 1252 214 1318T368 1424T574 1463Q702 1463 810 1411T972
1269T1027 1069Q1027 964 983 890T852 772V768Q911 747 949 716Q1010 665 1041 593T1072 428Q1072 226 934 97T552 -33Q438 -33 343 0T182 106T88 281Q69 347 68 446H351Q353 318 408 258T561 198Q658 198 717 258T777 423Q777 513 738 560T623 627Q572 639 447
639Z" />
<glyph unicode="4" glyph-name="four" horiz-adv-x="1139" d="M929 1442V541H1089V311H929V0H646V311H73V561L605 1442H929ZM646 541V1147L284 541H646Z" />
<glyph unicode="5" glyph-name="five" horiz-adv-x="1139" d="M109 635L209 1430H1008V1188H414L365 874Q421 914 472 931Q543 955 622 955Q747 955 852 894T1013 727T1068 483Q1068 334 1003 214T820 30T549 -33Q444 -33 351 0T192 96T95 241Q72 299 64 393H347Q362
294 415 246T553 198Q651 198 712 265T773 464Q773 599 717 661T555 724Q481 724 429 692Q392 669 365 621L109 635Z" />
<glyph unicode="6" glyph-name="six" horiz-adv-x="1139" d="M1040 1085H757Q747 1153 711 1187Q664 1231 592 1231Q496 1231 437 1154Q359 1053 350 814Q414 881 479 911T634 942Q746 942 850 887T1013 724T1071 478Q1071 334 1008 212T833 28T585 -33Q429 -33
312 44T131 276T67 689Q67 985 140 1156T336 1395T598 1463Q774 1463 890 1376T1040 1085ZM352 466Q352 339 416 269T577 198Q670 198 729 264T788 454Q788 578 727 644T568 711Q475 711 414 646T352 466Z" />
<glyph unicode="7" glyph-name="seven" horiz-adv-x="1139" d="M1083 1430V1217Q971 1094 866 927T693 596T586 249Q559 126 555 0H260Q271 162 295 261Q332 423 411 602T599 946Q666 1047 778 1176H55V1430H1083Z" />
<glyph unicode="8" glyph-name="eight" horiz-adv-x="1139" d="M856 786Q932 748 973 708T1043 600T1071 442Q1071 339 1032 244T928 88T774 -2T587 -33Q478 -33 376 -4T208 82T105 228T67 417Q67 510 94 581T165 694T286 776Q226 807 195 837Q154 878 129 938T104
1070Q104 1179 161 1271T324 1413T555 1462Q683 1462 795 1411T964 1265T1022 1060Q1022 962 980 895T856 786ZM567 857Q640 857 689 909T739 1048Q739 1134 690 1185T565 1237Q489 1237 440 1185T391 1044Q391 958 439 908T567 857ZM776 425Q776 531 719 591T569
651Q476 651 419 591T362 421Q362 318 419 258T569 198Q662 198 719 258T776 425Z" />
<glyph unicode="9" glyph-name="nine" horiz-adv-x="1139" d="M98 344H381Q392 272 435 235T547 198Q644 198 703 275Q781 378 788 614Q719 541 660 514T510 487Q387 487 280 545T120 713T67 951Q67 1096 130 1218T305 1401T553 1462Q709 1462 826 1386T1007 1154T1071
741Q1071 444 998 274T802 35T540 -33Q364 -33 248 54T98 344ZM786 963Q786 1091 722 1161T560 1231Q469 1231 410 1166T350 975Q350 851 411 785T569 718Q663 718 724 784T786 963Z" />
<glyph unicode=":" glyph-name="colon" horiz-adv-x="682" d="M187 739V1046H494V739H187ZM187 0V307H494V0H187Z" />
<glyph unicode=";" glyph-name="semicolon" horiz-adv-x="682" d="M187 739V1046H494V739H187ZM187 0V307H494V41Q494 -82 455 -159T343 -284Q289 -318 187 -344V-236Q276 -205 313 -155T359 0H187Z" />
<glyph unicode="&lt;" glyph-name="less" horiz-adv-x="1196" d="M61 419V658L1136 1071V816L367 539L1136 262V5L61 419Z" />
<glyph unicode="=" glyph-name="equal" horiz-adv-x="1196" d="M61 653V884H1135V653H61ZM61 192V423H1135V192H61Z" />
<glyph unicode="&gt;" glyph-name="greater" horiz-adv-x="1196" d="M1136 419L61 5V262L830 539L61 816V1071L1136 658V419Z" />
<glyph unicode="?" glyph-name="question" horiz-adv-x="1251" d="M490 444V502Q490 586 514 654Q532 703 567 744Q590 771 667 834T766 919Q794 948 809 982T824 1069Q824 1159 770 1212T626 1266Q524 1266 465 1205T404 1028H121Q132 1195 195 1301T365 1457T616
1507Q771 1507 892 1451T1072 1298T1131 1076Q1131 990 1104 929T1033 823T885 702Q756 608 756 500V444H490ZM477 0V283H785V0H477Z" />
<glyph unicode="@" glyph-name="at" horiz-adv-x="1997" d="M1274 1135H1464L1336 702Q1307 605 1307 575Q1307 542 1330 519T1390 495Q1475 495 1563 607T1651 905Q1651 1063 1575 1167T1364 1324T1068 1378Q866 1378 696 1288T437 1043T349 709Q349 540 433
405T676 187T1043 104Q1161 104 1263 131T1450 200Q1511 231 1603 296L1677 185Q1528 72 1370 16T1015 -40Q763 -40 577 63T292 346T193 721Q193 928 299 1115T611 1412T1061 1522Q1248 1522 1408 1459Q1531 1411 1617 1331T1754 1142T1805 899Q1805 748 1738 613T1561
411T1343 343Q1260 343 1210 391T1160 506Q1160 521 1163 536Q1119 443 1041 394T872 344Q752 344 672 431T591 669Q591 800 657 925T820 1110T1015 1171Q1100 1171 1156 1131T1238 1010L1274 1135ZM1182 912Q1182 964 1148 999T1064 1034Q1019 1034 976 1007Q944
987 910 941T849 834Q809 741 809 651Q809 573 845 532T936 491Q980 491 1015 516T1089 609T1155 771T1182 912Z" />
<glyph unicode="A" glyph-name="A" horiz-adv-x="1479" d="M41 0L567 1470H918L1438 0H1104L1010 303H467L365 0H41ZM549 557H924L741 1139H737L549 557Z" />
<glyph unicode="B" glyph-name="B" horiz-adv-x="1479" d="M144 0V1470H865Q1023 1470 1122 1426T1275 1292T1329 1090Q1329 979 1287 911T1149 793Q1235 756 1279 715T1350 604T1377 443Q1377 312 1329 221T1206 83T1026 15Q948 -1 798 -1L144 0ZM451 1217V891H818Q932
891 983 936T1034 1063Q1034 1136 988 1176T826 1217H451ZM451 649V253H822Q881 253 912 260Q960 270 992 291T1047 358T1070 461Q1070 521 1043 567T971 631T814 649H451Z" />
<glyph unicode="C" glyph-name="C" horiz-adv-x="1479" d="M1094 987Q1059 1109 996 1166Q911 1242 777 1242Q664 1242 578 1187T445 1012T397 731Q397 570 445 453T576 282T765 228Q848 228 916 259T1025 346T1096 504H1401Q1376 383 1347 317Q1305 222 1225
139T1027 9T782 -37Q631 -37 501 10T279 159T139 409T90 722Q90 928 156 1101Q202 1223 280 1308T468 1443Q608 1507 773 1507Q920 1507 1040 1460T1240 1333T1362 1151Q1391 1081 1401 987H1094Z" />
<glyph unicode="D" glyph-name="D" horiz-adv-x="1479" d="M144 0V1470H787Q1076 1470 1222 1309Q1400 1113 1400 760Q1400 593 1364 452T1267 218T1134 80T974 18T702 0H144ZM451 1217V254H719Q816 254 880 279T983 350T1046 474Q1086 607 1086 757Q1086 867
1061 960T990 1112T885 1193T719 1217H451Z" />
<glyph unicode="E" glyph-name="E" horiz-adv-x="1366" d="M156 0V1470H1247V1217H463V891H1184V637H463V254H1282V0H156Z" />
<glyph unicode="F" glyph-name="F" horiz-adv-x="1251" d="M144 0V1470H1189V1217H451V872H1097V619H451V0H144Z" />
<glyph unicode="G" glyph-name="G" horiz-adv-x="1593" d="M1455 1015H1152Q1121 1125 1041 1183T826 1242Q691 1242 592 1176T439 980Q397 877 397 719Q397 560 446 453T594 287T811 228Q907 228 986 264T1118 376T1187 545H846V792H1460V0H1256L1225 185Q1157
103 1100 60T955 -10T765 -37Q644 -37 525 5T306 145T148 387T90 722Q90 958 180 1137T432 1411T810 1507Q977 1507 1119 1449Q1223 1407 1294 1341T1403 1197T1455 1015Z" />
<glyph unicode="H" glyph-name="H" horiz-adv-x="1479" d="M144 0V1470H451V911H1029V1470H1335V0H1029V657H451V0H144Z" />
<glyph unicode="I" glyph-name="I" horiz-adv-x="569" d="M131 0V1470H438V0H131Z" />
<glyph unicode="J" glyph-name="J" horiz-adv-x="1139" d="M342 555Q343 432 346 395Q354 324 375 290T433 236T523 217Q619 217 658 276Q688 320 688 444V1470H995V406Q995 257 930 158T755 11T524 -37Q395 -37 301 -1T151 107T71 280T47 555H342Z" />
<glyph unicode="K" glyph-name="K" horiz-adv-x="1479" d="M168 0V1470H475V868L1044 1470H1441L837 868L1472 0H1077L622 645L475 494V0H168Z" />
<glyph unicode="L" glyph-name="L" horiz-adv-x="1251" d="M144 0V1470H451V265H1182V0H144Z" />
<glyph unicode="M" glyph-name="M" horiz-adv-x="1706" d="M143 0V1470H585L850 319H854L1118 1470H1562V0H1280V1229H1276L997 0H698L430 1229H426V0H143Z" />
<glyph unicode="N" glyph-name="N" horiz-adv-x="1479" d="M141 0V1470H463L1051 446V1470H1338V0H1030L428 1048V0H141Z" />
<glyph unicode="O" glyph-name="O" horiz-adv-x="1593" d="M90 735Q90 966 175 1146T424 1416T787 1507Q1004 1507 1169 1407T1419 1126T1503 735Q1503 515 1413 331T1155 55T787 -37Q582 -37 418 57T172 333T90 735ZM797 228Q908 228 1001 287T1145 467T1196
735Q1196 881 1147 1001T1003 1182T797 1242Q684 1242 590 1182T447 1002T397 735Q397 594 444 474T586 291T797 228Z" />
<glyph unicode="P" glyph-name="P" horiz-adv-x="1366" d="M144 0V1470H796Q925 1470 995 1450T1112 1394T1191 1315T1240 1219Q1272 1123 1272 1010Q1272 873 1235 779T1129 630T959 548Q887 528 764 528H451V0H144ZM451 1217V782H742Q822 782 871 810T943 889T965
1004Q965 1103 908 1160T742 1217H451Z" />
<glyph unicode="Q" glyph-name="Q" horiz-adv-x="1593" d="M1347 224L1522 62L1361 -107L1176 67Q1071 9 987 -14T791 -37Q569 -37 408 63T168 340T90 725Q90 964 174 1145T424 1416T787 1507Q1005 1507 1170 1407T1419 1125T1503 744Q1503 579 1455 434Q1420
330 1347 224ZM827 401L986 567L1129 432Q1164 506 1178 566Q1196 646 1196 738Q1196 882 1146 1002T1003 1182T797 1242Q684 1242 590 1182T447 1002T397 735Q397 589 447 469T591 288T797 228Q841 228 878 236T964 267L827 401Z" />
<glyph unicode="R" glyph-name="R" horiz-adv-x="1479" d="M144 1470H873Q1043 1470 1140 1423T1297 1274T1356 1055Q1356 926 1296 835T1129 704Q1239 662 1285 572Q1316 511 1316 358V258Q1316 131 1333 86Q1344 56 1380 38V0H1041Q1007 98 1007 206V344Q1007
445 984 491T916 558T768 578H451V0H144V1470ZM451 1217V823H799Q919 823 969 855Q1049 906 1049 1020Q1049 1131 973 1182Q921 1217 809 1217H451Z" />
<glyph unicode="S" glyph-name="S" horiz-adv-x="1366" d="M373 453Q376 380 400 338Q432 282 507 250T690 217Q849 217 932 281Q993 327 993 403Q993 452 967 486T887 540Q834 561 727 586L569 623Q418 658 347 686Q254 724 206 770T130 886T102 1046Q102 1207
180 1310T389 1460T662 1507Q774 1507 873 1482T1041 1414T1154 1312T1218 1192T1241 1030H946Q943 1099 916 1145T820 1222T652 1253Q514 1253 450 1201T385 1069Q385 998 436 961Q466 939 601 909L903 839Q1020 812 1092 772Q1190 717 1239 635T1288 436Q1288
338 1256 260T1176 131T1057 44T882 -15T671 -37Q537 -37 415 0Q331 25 269 67T164 168T103 291T78 453H373Z" />
<glyph unicode="T" glyph-name="T" horiz-adv-x="1251" d="M23 1217V1470H1227V1217H778V0H472V1217H23Z" />
<glyph unicode="U" glyph-name="U" horiz-adv-x="1479" d="M1026 1470H1332V569Q1332 435 1318 365Q1296 258 1247 185T1130 65T963 -9T740 -37Q610 -37 503 -6T325 83T214 211T157 387Q147 450 147 569V1470H454V536Q454 428 473 372Q492 315 557 272T739 228Q853
228 912 261T998 354T1026 536V1470Z" />
<glyph unicode="V" glyph-name="V" horiz-adv-x="1366" d="M37 1470H366L686 356L1009 1470H1329L826 0H535L37 1470Z" />
<glyph unicode="W" glyph-name="W" horiz-adv-x="1933" d="M30 1470H357L594 396L803 1470H1127L1348 396L1590 1470H1903L1488 0H1194L964 1147L734 0H447L30 1470Z" />
<glyph unicode="X" glyph-name="X" horiz-adv-x="1366" d="M27 0L504 752L54 1470H420L684 995L955 1470H1309L858 764L1340 0H963L684 502L387 0H27Z" />
<glyph unicode="Y" glyph-name="Y" horiz-adv-x="1366" d="M28 1470H391L696 832L989 1470H1337L844 555V0H538V555L28 1470Z" />
<glyph unicode="Z" glyph-name="Z" horiz-adv-x="1251" d="M52 0V261L817 1210H71V1470H1197V1224L422 261H1199V0H52Z" />
<glyph unicode="[" glyph-name="bracketleft" horiz-adv-x="682" d="M131 -356V1470H633V1270H397V-156H637V-356H131Z" />
<glyph unicode="\" glyph-name="backslash" horiz-adv-x="569" d="M-120 1519H115L688 0H451L-120 1519Z" />
<glyph unicode="]" glyph-name="bracketright" horiz-adv-x="682" d="M551 1470V-356H45V-156H285V1270H49V1470H551Z" />
<glyph unicode="^" glyph-name="asciicircum" horiz-adv-x="1196" d="M127 595L491 1474H704L1069 595H822L592 1171L374 595H127Z" />
<glyph unicode="_" glyph-name="underscore" horiz-adv-x="1139" d="M1139 -256H0V-154H1139V-256Z" />
<glyph unicode="`" glyph-name="grave" horiz-adv-x="682" d="M306 1207L3 1502H318L511 1207H306Z" />
<glyph unicode="a" glyph-name="a" horiz-adv-x="1139" d="M370 743H88Q98 910 219 1016T591 1122Q699 1122 787 1100T918 1042T984 951Q1016 879 1016 772L1015 215Q1015 118 1032 87Q1049 55 1081 45V0H768Q742 62 741 127Q654 36 579 2T400 -33Q293 -33 214
8T96 127T57 295Q57 431 128 523T392 644L632 680Q690 688 711 709T733 768Q733 827 694 860T561 893Q465 893 425 860T370 743ZM733 532Q696 513 662 502T569 478Q459 457 431 446Q385 427 362 394T339 313Q339 248 379 208T483 168Q577 168 655 229T733 422V532Z"
/>
<glyph unicode="b" glyph-name="b" horiz-adv-x="1251" d="M127 1472H411V948Q466 1030 552 1076T734 1122Q848 1122 953 1061T1119 866T1180 553Q1180 394 1128 258T971 45T727 -33Q615 -33 542 7T406 137V0H127V1472ZM653 210Q751 210 818 291T885 545Q885 718
818 799T643 880Q538 880 470 799T401 540Q401 421 437 346T528 241T653 210Z" />
<glyph unicode="c" glyph-name="c" horiz-adv-x="1139" d="M775 705Q755 796 713 838T592 880Q486 880 433 814Q365 727 365 536Q365 355 423 282T577 209Q661 209 716 261T775 399H1070Q1054 263 987 164T813 16T574 -33Q412 -33 296 38T125 242T70 525Q70 712
131 851T314 1056T585 1122Q681 1122 761 1097T896 1033T988 943T1042 840T1070 705H775Z" />
<glyph unicode="d" glyph-name="d" horiz-adv-x="1251" d="M837 1472H1121V0H849V152Q738 -33 529 -33Q404 -33 296 31T126 229T64 535Q64 712 126 848T292 1053T530 1122Q730 1122 837 953V1472ZM600 210Q705 210 775 290T845 542Q845 711 773 795T598 880Q530
880 476 842T390 725T359 536Q359 369 427 290T600 210Z" />
<glyph unicode="e" glyph-name="e" horiz-adv-x="1139" d="M338 457Q341 335 409 266T584 196Q658 196 708 230T778 324H1071Q1049 217 991 140T818 15T571 -33Q419 -33 304 30T121 229T53 549Q53 781 167 939Q298 1122 566 1122Q680 1122 772 1092T930 999T1032
851T1078 660Q1085 590 1084 457H338ZM790 645Q783 760 745 815Q691 893 578 893Q500 893 449 859T369 761Q350 717 344 645H790Z" />
<glyph unicode="f" glyph-name="f" horiz-adv-x="682" d="M644 1484V1252Q607 1254 580 1254Q519 1254 499 1245T471 1216T463 1128Q463 1104 464 1090H651V888H464V0H180V888H21V1090H177Q177 1234 189 1293T239 1396T343 1465T530 1490Q584 1490 644 1484Z" />
<glyph unicode="g" glyph-name="g" horiz-adv-x="1251" d="M840 1090H1121V57Q1121 -93 1092 -179T991 -327T821 -417T589 -447Q347 -447 224 -362T92 -119H404Q410 -167 449 -194Q500 -230 593 -230Q722 -230 781 -163T841 90Q841 114 840 166Q786 77 726 43Q645
-5 526 -5Q397 -5 290 59T125 249T67 543Q67 693 110 808T219 992T361 1091T531 1122Q632 1122 708 1078T840 934V1090ZM600 238Q705 238 772 315T840 554Q840 719 772 799T598 880Q496 880 429 800T362 554Q362 393 428 316T600 238Z" />
<glyph unicode="h" glyph-name="h" horiz-adv-x="1251" d="M1115 0H831V664Q831 779 785 829T653 880Q581 880 524 844T443 752T419 590V0H135V1472H419V948Q467 1029 549 1075T736 1122Q829 1122 904 1091T1025 1008T1093 893T1115 697V0Z" />
<glyph unicode="i" glyph-name="i" horiz-adv-x="569" d="M143 1221V1487H427V1221H143ZM143 0V1090H427V0H143Z" />
<glyph unicode="j" glyph-name="j" horiz-adv-x="569" d="M142 1221V1487H426V1221H142ZM3 -205H71Q112 -205 127 -188T142 -104V1090H426V-115Q426 -290 358 -362T131 -434Q70 -434 3 -428V-205Z" />
<glyph unicode="k" glyph-name="k" horiz-adv-x="1139" d="M127 0V1472H411V672L767 1090H1120L738 672L1134 0H790L530 467L411 344V0H127Z" />
<glyph unicode="l" glyph-name="l" horiz-adv-x="569" d="M427 1474V0H143V1474H427Z" />
<glyph unicode="m" glyph-name="m" horiz-adv-x="1821" d="M1688 0H1404V690Q1404 788 1361 834T1241 880Q1156 880 1104 824T1051 653V0H767V653Q767 738 753 782T699 853T601 880Q500 880 450 806Q416 756 416 653V0H132V1090H407V929Q456 1019 518 1062Q605
1122 724 1122Q797 1122 854 1100T951 1038Q981 1009 1021 943Q1074 1030 1151 1076T1335 1122Q1437 1122 1507 1085T1617 995T1673 875T1688 690V0Z" />
<glyph unicode="n" glyph-name="n" horiz-adv-x="1251" d="M1116 0H829V664Q829 780 783 830T645 880Q532 880 475 804T418 590V0H134V1090H409V929Q465 1026 543 1074T741 1122Q916 1122 1016 1023T1116 735V0Z" />
<glyph unicode="o" glyph-name="o" horiz-adv-x="1251" d="M68 545Q68 709 137 846T338 1053T627 1122Q790 1122 921 1050T1117 841T1182 545Q1182 377 1113 241T914 36T627 -33Q470 -33 339 36T138 243T68 545ZM363 545Q363 399 428 305T629 210Q747 210 817
290T888 552Q888 697 826 788T629 880Q493 880 428 786T363 545Z" />
<glyph unicode="p" glyph-name="p" horiz-adv-x="1251" d="M126 -422V1090H398V934H402Q437 997 475 1035T573 1098T715 1122Q840 1122 929 1074T1068 961T1150 792T1182 556Q1182 395 1132 254T972 40T714 -33Q605 -33 536 8T414 135H410V-422H126ZM644 880Q523
880 462 784T400 544Q400 374 469 292T644 210Q750 210 819 291T888 544Q888 686 827 783T644 880Z" />
<glyph unicode="q" glyph-name="q" horiz-adv-x="1251" d="M1122 1090V-431H838V138Q787 56 714 12T526 -33Q430 -33 359 -2T236 76T150 179T93 316Q63 427 63 555Q63 738 124 868T292 1060T520 1122Q632 1122 709 1073T847 927V1090H1122ZM598 210Q710 210 775
287T840 544Q840 741 751 823Q688 880 592 880Q495 880 427 797T358 537Q358 366 424 288T598 210Z" />
<glyph unicode="r" glyph-name="r" horiz-adv-x="797" d="M764 1114V823Q726 828 696 828Q587 828 522 788T436 692T415 521V0H131V1090H404V901Q427 958 474 1011T580 1093T704 1122Q734 1122 764 1114Z" />
<glyph unicode="s" glyph-name="s" horiz-adv-x="1139" d="M752 760Q744 815 727 841Q705 875 669 890Q622 909 565 909Q468 909 428 878T387 807Q387 785 397 768T432 736Q458 721 527 703L726 654Q826 628 851 619Q913 598 954 570T1020 510T1058 435T1072 343Q1072
254 1039 181T943 62T788 -9T571 -33Q444 -33 350 -6T197 72T109 187T68 348H363Q363 296 380 265Q404 222 453 201T578 180Q689 180 740 217Q777 245 777 291Q777 326 750 351T612 402Q369 458 299 486Q201 526 153 594T105 760Q105 860 157 945T313 1076T570
1122Q658 1122 737 1105T870 1053T958 975T1009 884T1035 760H752Z" />
<glyph unicode="t" glyph-name="t" horiz-adv-x="682" d="M173 886H21V1090H173V1384H457V1090H633V886H457V301Q457 250 464 234T492 209T578 201Q601 201 633 204V-9Q544 -15 496 -15Q358 -15 296 8T204 77T173 206V886Z" />
<glyph unicode="u" glyph-name="u" horiz-adv-x="1251" d="M137 1090H421V434Q421 330 453 280Q498 210 602 210Q674 210 729 245T806 335T829 498V1090H1113V0H840V154Q788 65 721 23Q632 -33 507 -33Q418 -33 352 -6T244 62T178 150T145 275Q137 331 137 434V1090Z" />
<glyph unicode="v" glyph-name="v" horiz-adv-x="1139" d="M27 1090H347L575 287L807 1090H1113L719 0H418L27 1090Z" />
<glyph unicode="w" glyph-name="w" horiz-adv-x="1593" d="M19 1090H325L495 307L652 1090H941L1107 307L1278 1090H1574L1259 0H965L794 794L621 0H325L19 1090Z" />
<glyph unicode="x" glyph-name="x" horiz-adv-x="1139" d="M402 555L47 1090H396L574 772L756 1090H1094L737 555L1108 0H754L574 328L377 0H31L402 555Z" />
<glyph unicode="y" glyph-name="y" horiz-adv-x="1139" d="M1110 1090L735 18L670 -171Q632 -268 602 -314T537 -386T451 -429T322 -446Q244 -446 185 -428V-199L201 -200Q251 -205 275 -205Q337 -205 381 -162T428 -57L29 1090H346L580 287H584L807 1090H1110Z" />
<glyph unicode="z" glyph-name="z" horiz-adv-x="1024" d="M80 1090H964V857L412 235H983V0H42V223L601 857H80V1090Z" />
<glyph unicode="{" glyph-name="braceleft" horiz-adv-x="797" d="M80 484V604Q150 627 186 651T241 703Q256 723 269 766Q289 829 289 889V1157Q289 1246 334 1329T469 1455T677 1499Q691 1499 718 1498V1339Q629 1330 587 1269Q559 1228 559 1131V898Q559 821
551 789Q539 732 504 680T417 588Q380 561 329 544Q436 503 497 421T559 211V-43Q559 -151 599 -198T718 -253V-412Q685 -413 680 -413Q603 -413 532 -393Q478 -378 434 -350T359 -286T309 -198T289 -74V225Q289 296 264 346T192 431Q163 453 80 484Z" />
<glyph unicode="|" glyph-name="bar" horiz-adv-x="573" d="M172 -512V1536H401V-512H172Z" />
<glyph unicode="}" glyph-name="braceright" horiz-adv-x="797" d="M718 604V484Q633 452 604 430Q553 391 534 347Q509 290 509 225V-74Q509 -161 464 -243T329 -369T117 -413Q104 -413 80 -412V-253Q169 -244 210 -183Q239 -142 239 -43V211Q239 291 261 349T337
461T469 544Q415 562 373 595Q315 640 287 689T245 796Q239 827 239 898V1131Q239 1227 212 1268Q170 1330 80 1339V1498Q118 1499 120 1499Q218 1499 293 1471T414 1397T479 1296Q509 1216 509 1157V889Q509 814 531 755Q553 696 593 664T718 604Z" />
<glyph unicode="~" glyph-name="asciitilde" horiz-adv-x="1196" d="M1151 717Q1133 530 1049 443T840 356Q803 356 754 368Q655 392 465 458Q363 494 325 494Q281 494 245 459T198 358H45Q61 538 147 628T354 719Q388 719 429 710Q453 704 655 640Q771 603 807
596Q843 588 872 588Q920 588 953 620T998 717H1151Z" />
</font>
</defs>
</svg>
