<?xml version="1.0" standalone="no"?>
<!DOCTYPE svg PUBLIC "-//W3C//DTD SVG 1.1//EN" "http://www.w3.org/Graphics/SVG/1.1/DTD/svg11.dtd" >
<svg xmlns="http://www.w3.org/2000/svg">
<metadata></metadata>
<defs>
<font id="NoticiaTextRegular" horiz-adv-x="1114" >
<font-face units-per-em="2048" ascent="1638" descent="-410" />
<missing-glyph horiz-adv-x="550" />
<glyph horiz-adv-x="0" />
<glyph horiz-adv-x="0" />
<glyph unicode="&#xd;" horiz-adv-x="0" />
<glyph unicode=" "  horiz-adv-x="550" />
<glyph unicode="&#x09;" horiz-adv-x="550" />
<glyph unicode="&#xa0;" horiz-adv-x="550" />
<glyph unicode="!" horiz-adv-x="592" d="M180 85.5q0 27.5 8 59t22 55.5q29 51 68 51t70 -8t54 -23q50 -30 50 -68t-8 -68.5t-22 -53.5q-29 -52 -68.5 -52t-70.5 8t-54 21.5t-36 32t-13 46zM213 1540l197 22l20 -22l-38 -1170h-141z" />
<glyph unicode="&#x22;" horiz-adv-x="604" d="M70 1157v383h186v-42l-63 -341h-123zM328 1157v383h186v-42l-63 -341h-123z" />
<glyph unicode="#" horiz-adv-x="1317" d="M90 306v137h239l66 466h-239v137h258l44 307h155v-20l-41 -287h286l44 307h155v-20l-41 -287h211v-137h-230l-66 -466h230v-137h-250l-43 -306h-155v20l40 286h-286l-43 -306h-155v20l40 286h-219zM487 443h286l66 466h-286z" />
<glyph unicode="$" horiz-adv-x="1100" d="M112 300l117 25l82 -194q81 -24 177 -24v515q-265 159 -320.5 239.5t-55.5 177.5q0 146 125 241q97 73 251 90v192h125v-187q170 -5 303 -52l21 -270l-105 -22l-82 193q-69 18 -137 21v-478q4 -2 9 -5q188 -110 274.5 -201.5t86.5 -215.5q0 -165 -129 -266 q-96 -76 -241 -94v-211h-125v204q-221 4 -355 63zM302 1074q0 -71 48 -119t138 -109v396q-100 -11 -167 -34q-19 -63 -19 -134zM613 113q12 2 52 8t98 24q30 75 30 151.5t-47.5 131.5t-132.5 114v-429z" />
<glyph unicode="%" horiz-adv-x="1683" d="M108 1074q0 62 23.5 117t64.5 96q88 88 213 88t213 -88t88 -213t-88 -213t-213 -88t-213 88t-88 213zM254 0v20l966 1333h175v-20l-966 -1333h-175zM259 1074q0 -81 45 -130q42 -45 105 -45t105 45q45 49 45 130t-45 130q-42 45 -105 45t-105 -45q-45 -49 -45 -130z M939 278q0 63 23.5 118t64.5 96q88 88 213 88t213 -88t88 -213t-88 -213t-213 -88t-213 88t-88 212zM1090 279q0 -81 45 -129q42 -46 105 -46t105 46q45 48 45 129t-45 129q-42 46 -105 46t-105 -46q-45 -48 -45 -129z" />
<glyph unicode="&#x26;" horiz-adv-x="1439" d="M77 274v30q0 176 184 320q52 40 107 71q-145 207 -145 304v30q0 145 113 242q120 104 322 104q158 0 246 -73q84 -70 84 -197v-29q0 -152 -223 -300q-72 -47 -164 -100q205 -243 373 -385q71 100 71 235v26l-153 34l20 98l303 22v-187q0 -174 -124 -317 q137 -95 246.5 -95t208.5 34v-96q-95 -67 -246.5 -67t-330.5 120q-183 -120 -443 -120q-328 0 -418 163q-31 56 -31 133zM267 312q0 -93 83 -150q78 -55 183 -55q194 0 323 76q-171 142 -405 416q-149 -89 -175 -194q-9 -36 -9 -77v-16zM413 1047q0 -75 19 -120 q28 -63 93 -152q273 148 273 278v16q0 83 -54 131q-52 46 -138 46q-83 0 -143 -20q-50 -75 -50 -162v-17z" />
<glyph unicode="'" horiz-adv-x="346" d="M70 1157v383h186v-42l-63 -341h-123z" />
<glyph unicode="(" horiz-adv-x="663" d="M110 543q0 409 205 772q90 161 205 286l93 -60q-90 -120 -140 -230t-79 -189t-51.5 -170.5t-36 -194t-13.5 -215t13.5 -215t35.5 -193.5q84 -339 271 -590l-93 -60q-238 257 -346 620q-64 215 -64 439z" />
<glyph unicode=")" horiz-adv-x="663" d="M50 -456q244 328 306 784q14 102 14 214.5t-14 215t-36 194.5q-85 342 -270 589l93 60q114 -125 178.5 -240t101.5 -198.5t66 -180.5q64 -214 64 -439q0 -401 -205 -773q-91 -162 -205 -286z" />
<glyph unicode="*" horiz-adv-x="780" d="M15 1306l76 132l21 -12l225 -165l-31 277v24h153v-24l-31 -277l225 165l21 12l75 -132l-20 -12l-255 -112l256 -112l20 -12l-76 -132l-21 12l-225 165l31 -277v-24h-153v24l31 277l-225 -165l-21 -12l-75 132l20 12l254 112l-255 112z" />
<glyph unicode="+" horiz-adv-x="1063" d="M160 520v147h298v318h147v-318h298v-147h-298v-318h-147v318h-298z" />
<glyph unicode="," horiz-adv-x="550" d="M90 79q0 110 62 158q18 14 48 14q138 0 172 -107q14 -44 14 -99.5t-7.5 -102.5t-30.5 -96q-45 -98 -176 -212l-68 80q151 126 151 222q0 34 -52 47q-113 30 -113 96z" />
<glyph unicode="-" horiz-adv-x="803" d="M60 520v147h693v-147h-693z" />
<glyph unicode="." horiz-adv-x="550" d="M140 85.5q0 27.5 8 59t22 55.5q31 51 69 51t69 -8t54 -22q50 -29 50 -68t-8 -69.5t-22 -53.5q-31 -52 -69.5 -52t-69.5 8t-54 22t-36 32t-13 45.5z" />
<glyph unicode="/" horiz-adv-x="833" d="M60 -275l568 1815h165v-20l-568 -1815h-165v20z" />
<glyph unicode="0" horiz-adv-x="1176" d="M114 517v105q0 371 126.5 562t361 191t347.5 -131.5t113 -408.5v-104q0 -377 -119.5 -565t-381.5 -188q-447 0 -447 539zM308 572q0 -237 67 -351t217 -114t213 133t63 402v140q0 238 -63.5 351t-215.5 113t-216.5 -126.5t-64.5 -407.5v-140z" />
<glyph unicode="1" horiz-adv-x="728" d="M53 1269l335 84h111v-1221l182 -34l-20 -98h-515l-20 98l183 34v1034h-246z" />
<glyph unicode="2" horiz-adv-x="982" d="M68 0v145q136 143 252 265t200.5 227t132.5 194t48 187.5t-62 163t-172 64.5q-98 0 -197 -47l-57 -201l-109 11v261q78 43 183 74t204 31q189 0 294.5 -86.5t105.5 -251.5q0 -238 -375 -628q-107 -112 -221 -229l4 -10h437l82 193l104 -23l-23 -340h-831z" />
<glyph unicode="3" horiz-adv-x="990" d="M85 72l1 258l105 12l52 -193q113 -42 218.5 -42t177.5 73t72 199.5t-74 202t-189 75.5h-103v129h93q105 0 165 63t60 178q0 219 -224 219q-84 0 -169 -32l-53 -193l-105 12v268q174 74 356.5 74t283.5 -83.5t101 -240.5q0 -116 -55 -195.5t-138 -122.5 q112 -35 176 -122.5t64 -205.5q0 -200 -124 -313.5t-331 -113.5q-96 0 -194.5 28.5t-165.5 65.5z" />
<glyph unicode="4" horiz-adv-x="1026" d="M24 408l579 945h194l-567 -892l5 -10h381v366h190v-366h132l24 -100l-156 -34v-185l152 -34l-20 -98h-495l-20 98l193 34v190h-569z" />
<glyph unicode="5" horiz-adv-x="1043" d="M110 66v257l115 8l61 -194q82 -30 200 -30t200.5 82t82.5 216t-78.5 207t-212.5 73t-253 -43l-96 87l35 624h713v-170h-584l-26 -405q104 44 230 44q218 0 340 -99.5t122 -295t-140.5 -322.5t-343.5 -127q-94 0 -196.5 27.5t-168.5 60.5z" />
<glyph unicode="6" horiz-adv-x="1051" d="M104 500v72q0 353 184 578t444 225q80 0 162 -22v-116q-97 9 -145 9q-190 0 -320 -162.5t-130 -392.5l10 -4q130 100 295.5 100t272 -104t106.5 -256v-29q0 -197 -121.5 -308.5t-325 -111.5t-318 137t-114.5 385zM299 521q0 -197 75 -305.5t185 -108.5t172 72t62 193v16 q0 124 -71.5 197t-186.5 73t-236 -51v-86z" />
<glyph unicode="7" horiz-adv-x="926" d="M50 988v365h888v-93l-515 -1260h-179l508 1173l-6 10h-528l-53 -203z" />
<glyph unicode="8" horiz-adv-x="1018" d="M84 304q0 123 75 220t202 147q-108 58 -167 136t-59 216t111 245t286.5 107t268 -76.5t92.5 -199.5t-71 -213.5t-181 -138.5q303 -129 303 -371q0 -178 -123.5 -288t-324 -110t-306.5 84.5t-106 241.5zM274 346q0 -112 60.5 -175.5t167.5 -63.5t179.5 67.5t72.5 158 t-60 153.5q-66 70 -226 132q-14 6 -28 13q-166 -99 -166 -285zM324 1027q0 -97 60.5 -152t172.5 -95q146 80 146 269q0 94 -46 145.5t-135 51.5t-143.5 -61t-54.5 -158z" />
<glyph unicode="9" horiz-adv-x="1058" d="M94 902v29q0 201 113 322.5t317 121.5q430 0 430 -531v-78q0 -387 -168 -587.5t-462 -200.5q-90 0 -177 23v116q64 -10 148 -10q207 0 337.5 148.5t130.5 386.5l-10 4q-44 -41 -122 -72t-161 -31q-160 0 -268 102t-108 257zM284 941q0 -118 68 -193.5t182 -75.5t229 54 v72q0 215 -65 331.5t-189 116.5q-225 0 -225 -289v-16z" />
<glyph unicode=":" horiz-adv-x="596" d="M152 85.5q0 27.5 8 59t22 55.5q29 51 68 51t70 -8t54 -23q50 -30 50 -68t-8 -68.5t-22 -53.5q-29 -52 -68.5 -52t-70.5 8t-54 21.5t-36 32t-13 46zM152 850.5q0 27.5 8 59t22 54.5q31 52 69 52t69 -8t54 -22q50 -29 50 -68t-8 -69.5t-22 -54.5q-31 -51 -69.5 -51t-69.5 8 t-54 22t-36 32t-13 45.5z" />
<glyph unicode=";" horiz-adv-x="601" d="M152 79q0 110 62 158q18 14 48 14q138 0 172 -107q14 -44 14 -99.5t-7.5 -102.5t-30.5 -96q-45 -98 -176 -212l-68 80q151 126 151 222q0 34 -52 47q-113 30 -113 96zM152 850.5q0 27.5 8 59t22 54.5q31 52 69 52t69 -8t54 -22q50 -29 50 -68t-8 -69.5t-22 -54.5 q-31 -51 -69.5 -51t-69.5 8t-54 22t-36 32t-13 45.5z" />
<glyph unicode="&#x3c;" horiz-adv-x="1148" d="M140 555v96l798 374h30v-139l-592 -278v-10l592 -277v-140h-30z" />
<glyph unicode="=" horiz-adv-x="1122" d="M160 307v157h802v-157h-802zM160 770v157h802v-157h-802z" />
<glyph unicode="&#x3e;" horiz-adv-x="1148" d="M180 181v140l592 277v10l-592 278v139h30l798 -374v-96l-798 -374h-30z" />
<glyph unicode="?" horiz-adv-x="1019" d="M120 1202v277q166 83 390 83q298 0 382 -161q27 -52 27 -114t-11 -108t-37 -89q-44 -75 -174 -194l-151 -138q-62 -56 -90.5 -97.5t-28.5 -84.5q0 -80 92 -80q74 0 139 31v-101q-79 -50 -183 -50q-154 0 -209 111q-19 37 -19 80.5t9 78.5t30 72q41 71 137 159l152 140 q97 91 122 128q42 64 42 113.5t-14 80t-45 53.5q-66 50 -197 50q-110 0 -181 -32l-70 -225zM296 85.5q0 27.5 8 59t22 55.5q29 51 68 51t70 -8t54 -23q50 -30 50 -68t-8 -68.5t-22 -53.5q-29 -52 -68.5 -52t-70.5 8t-54 21.5t-36 32t-13 46z" />
<glyph unicode="@" horiz-adv-x="1860" d="M140 350q0 296 125 534q121 230 337 360q218 131 488 131q332 0 523 -172q187 -169 187 -453q0 -424 -272 -583q-99 -58 -204 -65l-146 -14l-81 78l26 190q-103 -189 -255 -251q-41 -17 -96.5 -17t-102 19t-75.5 61q-57 83 -33 267l12 93q31 235 151 380q129 155 328 155 q93 0 189.5 -28.5t149.5 -49.5l-112 -796q130 7 223 107q118 129 118 414q0 545 -560 545q-315 0 -530 -258q-210 -253 -210 -617q0 -304 184 -448q157 -122 426.5 -122t505.5 111v-86q-136 -79 -326 -123q-98 -22 -210 -22q-760 0 -760 660zM753 523q-46 -327 86 -327 q116 0 249 198q32 47 53 89l64 463q-77 33 -135 33q-111 0 -197 -50q-81 -129 -115 -370z" />
<glyph unicode="A" horiz-adv-x="1218" d="M-8 98l108 29l440 1226h149l429 -1226l108 -29l-20 -98h-385l-20 98l128 29l-94 279h-491l-96 -279l128 -29l-20 -98h-344zM389 535h402l-194 569h-10z" />
<glyph unicode="B" horiz-adv-x="1160" d="M76 98l153 34v1089l-153 34l20 98h477q433 0 433 -312q0 -114 -57 -194.5t-140 -122.5l2 -16q111 -21 182 -97.5t71 -192.5q0 -193 -117.5 -305.5t-322.5 -112.5h-528zM419 129h137q173 0 289 49q29 91 29 211t-81 184.5t-220 64.5h-154v-509zM419 767h131q121 0 227 39 q39 106 39 207q0 211 -282 211h-115v-457z" />
<glyph unicode="C" horiz-adv-x="1176" d="M100 515v89q0 381 154 576t451 195q212 0 363 -59l21 -270l-105 -22l-83 195q-85 27 -197 27q-203 0 -325 -88q-40 -92 -64.5 -220t-24.5 -255v-133q0 -214 117.5 -328.5t311 -114.5t373.5 104v-106q-197 -127 -429 -127q-563 0 -563 537z" />
<glyph unicode="D" horiz-adv-x="1362" d="M78 98l153 34v1089l-153 34l20 98h540q302 0 455 -151.5t153 -436.5v-78q0 -318 -155 -502.5t-430 -184.5h-563zM421 129h211q156 0 278 49q62 77 104 195t42 249v94q0 241 -115.5 374.5t-341.5 133.5h-178v-1095z" />
<glyph unicode="E" horiz-adv-x="1191" d="M76 98l153 34v1089l-153 34l20 98h937l24 -300l-103 -22l-83 193h-452v-452h357l34 122l99 -20v-334l-99 -20l-34 123h-357v-514h481l83 193l104 -23l-24 -299h-967z" />
<glyph unicode="F" horiz-adv-x="1043" d="M72 98l153 34v1089l-153 34l20 98h877l24 -300l-103 -22l-83 193h-392v-452h320l34 122l98 -20v-334l-98 -20l-34 123h-320v-511l202 -34l-20 -98h-505z" />
<glyph unicode="G" horiz-adv-x="1300" d="M102 505v89q0 378 157.5 579.5t454.5 201.5q213 0 363 -57l21 -270l-105 -22l-82 193q-93 27 -200 27q-200 0 -320 -88q-99 -200 -99 -475v-133q0 -211 121 -327t290 -116q98 0 199 36v361l-153 34l20 108h455l20 -108l-152 -34v-399q-207 -127 -454 -127t-391.5 135 t-144.5 392z" />
<glyph unicode="H" horiz-adv-x="1459" d="M72 98l153 34v1089l-153 34l20 98h455l20 -98l-152 -34v-443h624v443l-152 34l20 98h456l20 -98l-154 -34v-1089l154 -34l-20 -98h-456l-20 98l152 34v517h-624v-517l152 -34l-20 -98h-455z" />
<glyph unicode="I" horiz-adv-x="643" d="M72 98l153 34v1089l-153 34l20 98h455l20 -98l-152 -34v-1089l152 -34l-20 -98h-455z" />
<glyph unicode="J" horiz-adv-x="859" d="M70 291l103 22l82 -192q39 -15 71 -15q56 0 100 21q31 84 31 242v852l-193 34l20 98h495l20 -98l-152 -34v-885q0 -174 -84 -266t-251 -92q-118 0 -221 53z" />
<glyph unicode="K" horiz-adv-x="1304" d="M72 98l153 34v1089l-153 34l20 98h455l20 -98l-152 -34v-557l14 -6l544 575l-110 21l20 99h362l20 -98l-122 -34l-433 -455l456 -633l146 -35l-20 -98h-244l-459 639l-174 -183v-324l152 -34l-20 -98h-455z" />
<glyph unicode="L" horiz-adv-x="1018" d="M74 98l153 34v1089l-153 34l20 98h455l20 -98l-152 -34v-1092h336l83 193l104 -22l-25 -300h-821z" />
<glyph unicode="M" horiz-adv-x="1922" d="M72 98l153 34v1089l-153 34l20 98h427l436 -1042h16l418 1042h437l20 -98l-152 -34v-1089l152 -34l-20 -98h-455l-20 98l153 34v1078h-16l-492 -1210h-105l-510 1210h-16v-1078l152 -34l-20 -98h-405z" />
<glyph unicode="N" horiz-adv-x="1532" d="M72 98l153 34v1089l-153 34l20 98h420l655 -1217h16v1085l-154 34l20 98h407l20 -98l-152 -34v-1221h-287l-656 1218h-16v-1086l152 -34l-20 -98h-405z" />
<glyph unicode="O" horiz-adv-x="1345" d="M102 525v79q0 389 148 580t433 191q560 0 560 -548v-78q0 -377 -144 -574t-436 -197q-561 0 -561 547zM292 570q0 -221 112.5 -342t288.5 -121q88 0 165.5 26.5t126.5 62.5q68 212 68 454v133q0 236 -104.5 349.5t-295.5 113.5q-89 0 -168 -27.5t-124 -60.5 q-69 -212 -69 -455v-133z" />
<glyph unicode="P" horiz-adv-x="1102" d="M74 98l153 34v1089l-153 34l20 98h501q457 0 457 -345q0 -186 -124 -296.5t-310 -110.5h-201v-469l212 -34l-20 -98h-515zM417 730h160q140 0 250 38q31 99 31 208.5t-79 178.5t-232 69h-130v-494z" />
<glyph unicode="Q" horiz-adv-x="1360" d="M100 525v79q0 376 145.5 573.5t435.5 197.5q560 0 560 -548v-78q0 -449 -206 -640q37 -79 74.5 -126.5t100.5 -47.5t128 25v-100q-80 -54 -175 -54t-158 43.5t-109 139.5l-13 26q-105 -37 -222 -37q-561 0 -561 547zM290 570q0 -68 9 -113q32 65 97.5 101.5t172 36.5 t196.5 -62.5t166 -209.5l62 -127q18 55 38 189t20 265v133q0 233 -103.5 348t-296.5 115q-88 0 -169 -26t-133 -62q-59 -204 -59 -455v-133zM341 356q0 -86 102.5 -167.5t247.5 -81.5q73 0 139 17l-48 99q-123 243 -303 243q-138 0 -138 -110z" />
<glyph unicode="R" horiz-adv-x="1205" d="M72 98l153 34v1089l-153 34l20 98h492q428 0 428 -343q0 -130 -59.5 -226.5t-162.5 -144.5l-6 -19l277 -488l146 -34l-20 -98h-249l-340 601h-183v-469l152 -34l-20 -98h-455zM415 730h123q136 0 251 39q29 119 29 200q0 119 -76.5 187t-225.5 68h-101v-494z" />
<glyph unicode="S" horiz-adv-x="1066" d="M109 300l117 25l82 -194q81 -24 170 -24q160 0 282 38q30 75 30 151.5t-59 145t-284 202.5t-281.5 216t-56.5 179q0 146 125.5 241t346.5 95q185 0 332 -52l21 -270l-105 -22l-82 193q-82 22 -165 22q-155 0 -264 -38q-19 -63 -19 -134t59.5 -130.5t260.5 -181.5 q188 -110 274.5 -201.5t86.5 -215.5q0 -165 -128.5 -266t-343.5 -101q-235 0 -378 63z" />
<glyph unicode="T" horiz-adv-x="1139" d="M14 1063l15 290h1082l14 -290l-98 -9l-63 170h-299v-1092l153 -34l-20 -98h-456l-20 98l153 34v1092h-300l-62 -170z" />
<glyph unicode="U" horiz-adv-x="1358" d="M16 1255l20 98h456l20 -98l-152 -34v-675q0 -223 94 -331t259 -108q79 0 148 23t110 53q78 142 78 338v700l-153 34l20 98h406l20 -98l-152 -34v-677q0 -291 -127 -428.5t-383 -137.5t-383 124.5t-127 388.5v730z" />
<glyph unicode="V" horiz-adv-x="1180" d="M-44 1254l20 99h406l20 -99l-149 -29l351 -1043h16l350 1043l-149 29l20 99h363l20 -99l-108 -28l-430 -1226h-191l-432 1226z" />
<glyph unicode="W" horiz-adv-x="1998" d="M-44 1254l20 99h407l20 -99l-149 -29l335 -993h16l342 1121h191l334 -1121h16l304 993l-153 29l20 99h363l20 -99l-103 -27l-386 -1227h-191l-333 1107h-16l-337 -1107h-192l-422 1227z" />
<glyph unicode="X" horiz-adv-x="1273" d="M36 98l117 29l381 575l-346 524l-116 28l20 99h401l20 -99l-118 -28l267 -403h16l258 402l-120 29l20 99h355l20 -99l-118 -28l-352 -526l379 -573l117 -29l-20 -98h-401l-20 98l118 29l-299 453h-16l-289 -452l117 -30l-20 -98h-351z" />
<glyph unicode="Y" horiz-adv-x="1122" d="M-52 1254l20 99h410l20 -99l-132 -28l321 -504h16l304 504l-125 28l20 99h352l20 -99l-111 -28l-395 -650v-444l152 -34l-20 -98h-455l-20 98l153 34v446l-416 648z" />
<glyph unicode="Z" horiz-adv-x="1130" d="M82 0v125l715 1085l-5 14h-516l-82 -193l-104 22l25 300h908v-124l-716 -1086l5 -14h557l82 193l103 -22l-24 -300h-948z" />
<glyph unicode="[" horiz-adv-x="634" d="M180 -457v2134h358v-96h-191v-1942h191v-96h-358z" />
<glyph unicode="\" horiz-adv-x="833" d="M40 1520v20h165l568 -1815v-20h-165z" />
<glyph unicode="]" horiz-adv-x="634" d="M96 -361h191v1942h-191v96h358v-2134h-358v96z" />
<glyph unicode="^" horiz-adv-x="1104" d="M140 1049v30l364 461h96l364 -461v-30h-139l-268 335h-10l-267 -335h-140z" />
<glyph unicode="_" horiz-adv-x="1116" d="M60 -235h1036v-144h-1036v144z" />
<glyph unicode="`" horiz-adv-x="832" d="M141 1594v66l175 10l233 -363v-32l-118 -10z" />
<glyph unicode="a" horiz-adv-x="1150" d="M108 237q0 370 651 370v95q0 150 -54.5 217.5t-190.5 67.5q-75 0 -150 -15l-60 -212l-98 10v283q154 54 343 54q390 0 390 -372v-603l173 -34l-20 -98l-255 -22l-58 177q-145 -177 -360 -177q-140 0 -225.5 70t-85.5 189zM288 271q0 -79 55 -126t137 -47t155 37.5 t124 89.5v262q-310 0 -443 -72q-28 -65 -28 -144z" />
<glyph unicode="b" horiz-adv-x="1122" d="M4 1442l20 98l313 22v-615l14 -6q126 166 308 166t275.5 -111.5t93.5 -329.5v-94q0 -277 -126.5 -435.5t-336.5 -158.5q-168 0 -408 65v1365zM337 125q132 -27 221 -27q146 0 229 62q21 44 41 146t20 217v119q0 345 -242 345q-69 0 -142 -44.5t-127 -104.5v-713z" />
<glyph unicode="c" horiz-adv-x="972" d="M96 399v93q0 296 126.5 455.5t349.5 159.5q160 0 305 -63l19 -234l-110 -23l-69 179q-71 21 -141 21q-136 0 -240 -60q-60 -164 -60 -375v-109q0 -160 93 -252.5t229 -92.5t290 73v-96q-156 -97 -355.5 -97t-318 108.5t-118.5 312.5z" />
<glyph unicode="d" horiz-adv-x="1186" d="M98 413v93q0 281 126.5 441t351.5 160q90 0 223 -24v325l-153 34l20 98l313 22v-1430l153 -34l-20 -98l-235 -22l-58 177q-136 -177 -330 -177h-9q-179 0 -280.5 112.5t-101.5 322.5zM278 434q0 -163 70 -249.5t187 -86.5q73 0 145.5 39.5t118.5 87.5v735 q-130 27 -219 27q-156 0 -252 -67q-50 -162 -50 -367v-119z" />
<glyph unicode="e" horiz-adv-x="1034" d="M96 414v83q0 287 127.5 448.5t339 161.5t301.5 -103.5t90 -360.5v-120h-678v-76q0 -168 92.5 -258.5t235 -90.5t297.5 65v-96q-168 -89 -373 -89t-318.5 112t-113.5 324zM279 643h485q0 182 -52.5 263t-168.5 81q-59 0 -116 -18t-91 -42q-47 -121 -57 -284z" />
<glyph unicode="f" horiz-adv-x="747" d="M96 987l20 98h143v108q0 185 77 277t222 92q93 0 177 -37l-43 -131q-123 41 -223 41q-30 -75 -30 -226v-124h214l20 -98l-234 -34v-821l213 -34l-20 -98h-506l-20 98l153 34v821z" />
<glyph unicode="g" horiz-adv-x="1075" d="M92 -259q0 132 209 268q-154 30 -154 149.5t173 250.5q-86 41 -129.5 111t-43.5 150v26q0 196 109 303.5t291 107.5q67 0 153 -22h314l18 -107h-208l-4 -10q43 -29 75 -87t32 -121v-25q0 -168 -109.5 -267.5t-290.5 -99.5q-65 0 -119 12q-121 -112 -121 -166t71 -54h224 q238 0 356.5 -69t118.5 -224t-138.5 -239.5t-377 -84.5t-344 47t-105.5 151zM252 -215q0 -71 73.5 -96.5t204.5 -25.5q230 0 350 51q37 52 37 134t-72.5 117t-250.5 35h-183q-159 -118 -159 -215zM327 706q0 -97 71 -157.5t153 -60.5q94 0 156 30q40 75 40 208v38 q0 105 -66 164t-158 59q-91 0 -156 -30q-40 -103 -40 -213v-38z" />
<glyph unicode="h" horiz-adv-x="1324" d="M83 98l153 34v1276l-153 34l20 98l313 22v-615l14 -6q130 166 319.5 166t274 -94t84.5 -287v-594l153 -34l-20 -98h-446l-20 98l153 34v560q0 159 -53.5 227t-172.5 68q-76 0 -153.5 -43t-132.5 -106v-706l153 -34l-20 -98h-446z" />
<glyph unicode="i" horiz-adv-x="660" d="M106 98l153 34v821l-153 34l20 98l313 22v-975l153 -34l-20 -98h-446zM212 1409q0 48 29.5 89.5t77.5 41.5t88.5 -29t40.5 -77.5t-29.5 -89.5t-77 -41t-88.5 29t-41 77z" />
<glyph unicode="j" horiz-adv-x="569" d="M-104 -420l36 131q154 -41 260 -41q40 84 40 244v1039l-183 34l20 98l343 22v-1154q0 -208 -71 -309t-236 -101q-111 0 -209 37zM185 1409q0 48 29.5 89.5t77.5 41.5t88.5 -29t40.5 -77.5t-29.5 -89.5t-77 -41t-88.5 29t-41 77z" />
<glyph unicode="k" horiz-adv-x="1185" d="M84 98l153 34v1276l-153 34l20 98l313 22v-989l14 -6l429 401l-92 19l20 98h322l20 -98l-87 -19l-359 -325l343 -511l134 -34l-20 -98h-223l-357 532l-144 -130v-270l153 -34l-20 -98h-446z" />
<glyph unicode="l" horiz-adv-x="642" d="M93 98l153 34v1276l-153 34l20 98l313 22v-1430l153 -34l-20 -98h-446z" />
<glyph unicode="m" horiz-adv-x="2034" d="M104 98l153 34v821l-153 34l20 98l235 22l58 -178q72 86 167.5 132t195.5 46q251 0 318 -178q171 178 361.5 178t276 -94.5t85.5 -286.5v-594l153 -34l-20 -98h-446l-20 98l153 34v550q0 155 -55.5 230t-183.5 75t-273 -129v-726l153 -34l-20 -98h-446l-20 98l153 34v550 q0 156 -53.5 230.5t-182.5 74.5t-276 -129v-726l153 -34l-20 -98h-446z" />
<glyph unicode="n" horiz-adv-x="1346" d="M106 98l153 34v821l-153 34l20 98l235 22l58 -178q157 178 349.5 178t277.5 -93.5t85 -287.5v-594l153 -34l-20 -98h-446l-20 98l153 34v550q0 153 -49.5 229t-184.5 76t-278 -129v-726l153 -34l-20 -98h-446z" />
<glyph unicode="o" d="M96 419v93q0 276 126.5 435.5t339.5 159.5t334.5 -116.5t121.5 -334.5v-94q0 -265 -126 -424.5t-344.5 -159.5t-335 116.5t-116.5 324.5zM276 453q0 -168 86.5 -261.5t214.5 -93.5q105 0 201 60q60 126 60 345v119q0 171 -78.5 266.5t-222.5 98.5q-115 0 -201 -60 q-60 -136 -60 -355v-119z" />
<glyph unicode="p" horiz-adv-x="1160" d="M30 -336l153 34v1255l-153 34l20 98l235 22l58 -178q148 178 340 178q381 0 381 -451v-94q0 -271 -123 -427.5t-335 -156.5q-112 0 -243 25v-305l153 -34l-20 -99h-446zM363 125q120 -27 207 -27q156 0 257 60q21 55 39 151t18 194v119q0 180 -65.5 272.5t-192.5 92.5 t-263 -129v-733z" />
<glyph unicode="q" horiz-adv-x="1085" d="M100 409v83q0 279 125 447t330 168q163 0 416 -64v-1500l-313 22l-20 98l153 34v419l-10 4q-126 -142 -309.5 -142t-277.5 110.5t-94 320.5zM280 453q0 -178 68 -266.5t180 -88.5q72 0 144 38.5t119 88.5v734q-128 28 -215 28q-155 0 -242 -68q-54 -153 -54 -347v-119z " />
<glyph unicode="r" horiz-adv-x="885" d="M106 98l153 34v821l-153 34l20 98l235 22l58 -178q95 178 263 178q88 0 149 -42l-25 -283h-112l-26 185q-19 8 -57.5 8t-89.5 -36.5t-82 -80.5v-726l186 -34l-20 -98h-479z" />
<glyph unicode="s" horiz-adv-x="970" d="M118 820q0 125 105 206t298 81q187 0 321 -68l9 -241l-109 -20l-59 189q-73 20 -147 20q-126 0 -216 -28q-22 -39 -22 -93.5t45.5 -102t240.5 -148t250.5 -176t55.5 -168.5q0 -130 -114.5 -211.5t-303.5 -81.5q-196 0 -336 70l-10 240l109 20l58 -187q75 -23 155 -23 q139 0 242 28q20 42 20 106t-64 120.5t-239 148.5t-232 161t-57 158z" />
<glyph unicode="t" horiz-adv-x="742" d="M28 986l20 99h141l73 293l107 -20v-273h290l20 -99l-310 -32v-645q0 -106 31.5 -158.5t112.5 -52.5t167 39v-94q-100 -65 -232.5 -65t-195.5 72t-63 220v684z" />
<glyph unicode="u" horiz-adv-x="1262" d="M38 987l20 98l313 22v-704q0 -156 55 -230.5t195.5 -74.5t261.5 127v728l-183 34l20 98l343 22v-975l153 -34l-20 -98l-235 -22l-58 178q-152 -178 -371 -178q-341 0 -341 381v594z" />
<glyph unicode="v" horiz-adv-x="1062" d="M-12 987l20 98h370l20 -98l-129 -20l278 -835h16l278 835l-129 20l20 98h324l20 -98l-95 -19l-339 -968h-217l-342 968z" />
<glyph unicode="w" horiz-adv-x="1733" d="M-10 987l20 98h371l20 -98l-131 -20l256 -808h16l268 926h183l273 -926h16l233 808l-134 20l20 98h326l20 -98l-94 -18l-295 -969h-212l-258 828h-16l-251 -828h-212l-323 968z" />
<glyph unicode="x" horiz-adv-x="1086" d="M24 98l92 16l333 429l-325 428l-86 16l20 98h350l20 -98l-93 -15l234 -306h16l228 305l-94 16l20 98h303l20 -98l-88 -16l-325 -412l339 -445l92 -16l-20 -98h-357l-20 98l93 15l-246 324h-16l-239 -324l96 -15l-20 -98h-307z" />
<glyph unicode="y" horiz-adv-x="1106" d="M-10 987l20 98h370l20 -98l-125 -19l295 -836h16l296 836l-125 19l20 98h325l20 -98l-97 -19l-357 -966q-90 -249 -177.5 -354t-225.5 -105q-112 0 -217 47l36 131q140 -51 270 -51q87 60 140 205l-407 1093z" />
<glyph unicode="z" horiz-adv-x="967" d="M92 0v95l593 868l-6 12h-400l-52 -190l-104 11v289h782v-83l-601 -880l6 -12h431l52 190l104 -11v-289h-805z" />
<glyph unicode="{" horiz-adv-x="814" d="M150 562v96h96q61 0 85.5 24.5t24.5 85.5v629q0 121 79.5 200.5t200.5 79.5h78v-96h-21q-91 0 -130.5 -39.5t-39.5 -130.5v-583q0 -168 -76 -203q-22 -10 -44 -10v-10q81 0 109 -110q11 -41 11 -103v-583q0 -91 39.5 -130.5t130.5 -39.5h21v-96h-78q-121 0 -200.5 79.5 t-79.5 200.5v629q0 61 -24.5 85.5t-85.5 24.5h-96z" />
<glyph unicode="|" horiz-adv-x="658" d="M270 -537v2207h118v-2207h-118z" />
<glyph unicode="}" horiz-adv-x="814" d="M100 -361h21q91 0 130.5 39.5t39.5 130.5v583q0 168 75 203q22 10 45 10v10q-81 0 -109 110q-11 41 -11 103v583q0 91 -39.5 130.5t-130.5 39.5h-21v96h78q121 0 200.5 -79.5t79.5 -200.5v-629q0 -61 24.5 -85.5t85.5 -24.5h96v-96h-96q-61 0 -85.5 -24.5t-24.5 -85.5 v-629q0 -121 -79.5 -200.5t-200.5 -79.5h-78v96z" />
<glyph unicode="~" horiz-adv-x="1211" d="M140 524v25q0 108 69 171q64 58 171 58q84 0 266 -66t215 -66q67 0 94 68q9 22 9 52l117 10v-47q0 -105 -64 -167q-63 -62 -164 -62q-73 0 -269.5 66t-227.5 66q-107 0 -107 -98z" />
<glyph unicode="&#xa1;" horiz-adv-x="572" d="M140 933q0 38 8 68.5t22 54.5q29 51 68.5 51t70.5 -8t54 -21.5t36 -32t13 -46.5t-8 -59t-22 -54q-29 -52 -68 -52t-70 8t-54 22q-50 31 -50 69zM163 -435l37 1150h141l37 -1150l-195 -22z" />
<glyph unicode="&#xa2;" horiz-adv-x="1024" d="M96 399v93q0 415 252 554q79 44 177 56v251h118v-247q171 -8 294 -62v-255l-122 -14l-48 191q-58 15 -124 20v-888q151 5 305 73v-96q-126 -78 -305 -94v-226h-118v225q-306 16 -397 240q-32 76 -32 179zM276 443q0 -202 155 -293q45 -27 94 -40v873q-113 -13 -189 -56 q-60 -159 -60 -375v-109z" />
<glyph unicode="&#xa3;" horiz-adv-x="1101" d="M110 674l100 28q-48 170 -48 277.5t24 172.5t76 114q112 109 323.5 109t355.5 -83v-277l-106 -15l-72 229q-85 26 -157 26q-137 0 -226 -41q-11 -22 -19 -48q-19 -62 -19 -177t45 -275h436v-129h-401q31 -126 31 -230.5t-43 -225.5h408l83 193l104 -22l-25 -300h-841 l-20 98l131 29q33 103 33 202.5t-40 255.5h-113z" />
<glyph unicode="&#xa4;" horiz-adv-x="1271" d="M180 970l128 107l138 -165q86 47 188 47t190 -46l138 164l129 -109l-138 -164q74 -97 74 -220t-83 -225l144 -170l-128 -107l-148 175q-82 -40 -176 -40t-176 39l-146 -174l-129 109l141 169q-81 102 -81 225t74 220zM421 587.5q0 -55.5 17 -97.5t46 -71q58 -58 152 -58 q145 0 197 129q17 42 17 97.5t-17 98t-46 71.5q-58 58 -151 58q-146 0 -198 -129q-17 -43 -17 -98.5z" />
<glyph unicode="&#xa5;" horiz-adv-x="1122" d="M-52 1254l20 99h410l20 -99l-131 -28l323 -504h10l306 504l-124 28l20 99h352l20 -99l-111 -28l-360 -591h247v-127h-282v-128h282v-127h-282v-121l152 -34l-20 -98h-455l-20 98l153 34v121h-291v127h291v128h-291v127h254l-379 591z" />
<glyph unicode="&#xa6;" horiz-adv-x="658" d="M270 320h118v-857h-118v857zM270 813v857h118v-857h-118z" />
<glyph unicode="&#xa7;" horiz-adv-x="1169" d="M130 777q0 157 145 267q-66 70 -66 143.5t20 124.5t67 89q103 83 312 83t345 -68l-24 -260h-111l-24 187q-77 21 -152 21q-151 0 -251 -26q-7 -11 -11 -25q-11 -33 -11 -68t17 -61.5t56 -55.5q51 -38 194.5 -115.5t210.5 -120t115 -88.5q97 -96 97 -221q0 -156 -148 -256 q79 -79 79 -183q0 -272 -409 -272q-215 0 -365 70l22 260h110l25 -187q145 -44 371 -9q37 6 66 15q20 40 20 85t-21 75.5t-67 64.5q-80 60 -225 133.5t-204 111t-99 79.5q-84 88 -84 207zM290 812q0 -73 60 -130q52 -50 173 -115q237 -127 298 -168q78 66 78 163 q0 78 -76 140q-61 50 -185 116q-221 119 -278 157q-70 -64 -70 -163z" />
<glyph unicode="&#xa8;" horiz-adv-x="1013" d="M200 1387.5q0 21.5 7 44.5t19 40q27 38 58 38t54 -7t40 -19q35 -27 35 -58t-7 -53.5t-19 -40.5q-26 -37 -57 -37t-54 7t-40 19.5t-26.5 28.5t-9.5 37.5zM600 1387.5q0 21.5 7 44.5t19 40q26 38 57 38t54 -7t40 -19q36 -27 36 -58t-7 -53.5t-20 -40.5q-26 -37 -57 -37 t-54 7t-39.5 19.5t-26 28.5t-9.5 37.5z" />
<glyph unicode="&#xa9;" horiz-adv-x="1467" d="M120 970q0 106 48.5 218t131.5 195t195 131t239 48t239 -48t195 -131t131 -195t48 -239t-48 -239t-131 -195t-195 -131.5t-218 -48.5t-184.5 22t-146.5 62t-124 96t-96 124t-62 146.5t-22 184.5zM259 949q0 -198 138.5 -336.5t336.5 -138.5t336.5 138.5t138.5 336.5 t-138.5 336.5t-336.5 138.5t-336.5 -138.5t-138.5 -336.5zM455 861v58q0 286 175 362q55 24 111 24q116 0 203 -38l12 -193l-68 -14l-44 137q-44 12 -83 12q-84 0 -133 -28q-23 -89 -23 -224v-68q0 -95 53 -149q45 -48 121.5 -48t172.5 46v-84q-97 -59 -217 -59 q-197 0 -259 147q-21 50 -21 119z" />
<glyph unicode="&#xaa;" horiz-adv-x="627" d="M40 940q0 199 330 199v33q0 62 -21 107q-46 16 -77 16q-55 0 -99 -8l-30 -116l-69 5v172q89 27 193 27t166 -42t62 -144v-282l92 -17l-10 -69l-168 -11l-27 82q-40 -49 -120 -73q-31 -9 -85.5 -9t-95.5 33.5t-41 96.5zM165 958q0 -68 70.5 -68t134.5 64v105 q-126 0 -194 -38q-11 -26 -11 -63z" />
<glyph unicode="&#xab;" horiz-adv-x="1063" d="M150 536v60l395 421h85v-22l-300 -419v-20l300 -419v-22h-85zM542 548v36l266 389h85v-22l-167 -385l167 -385v-22h-85z" />
<glyph unicode="&#xac;" horiz-adv-x="1193" d="M140 622v147h893v-464h-147v317h-746z" />
<glyph unicode="&#xad;" horiz-adv-x="969" d="M200 516l30 149l589 41l-30 -149z" />
<glyph unicode="&#xae;" horiz-adv-x="1467" d="M120 970q0 106 48.5 218t131.5 195t195 131t239 48t239 -48t195 -131t131 -195t48 -239t-48 -239t-131 -195t-195 -131.5t-218 -48.5t-184.5 22t-146.5 62t-124 96t-96 124t-62 146.5t-22 184.5zM259 949q0 -198 138.5 -336.5t336.5 -138.5t336.5 138.5t138.5 336.5 t-138.5 336.5t-336.5 138.5t-336.5 -138.5t-138.5 -336.5zM477 700l70 15v484l-70 17l9 55h261q209 0 209 -168q0 -112 -104 -176v-6l124 -207l72 -14l-9 -55h-156l-155 266h-59v-196l70 -15l-9 -55h-244zM669 995h56q56 0 93 17q3 10 6 22q8 32 8 65t-27 60.5t-90 27.5h-46 v-192z" />
<glyph unicode="&#xaf;" horiz-adv-x="1030" d="M150 1353l19 120h711l-20 -120h-710z" />
<glyph unicode="&#xb0;" horiz-adv-x="614" d="M80 1305q0 107 75 182t182 75t182 -75t75 -182t-75 -182t-182 -75t-182 75t-75 182zM209 1305q0 -106 78 -139q23 -9 50 -9q55 0 82 29q46 50 46 119q0 106 -78 139q-23 9 -50 9q-55 0 -82 -29q-46 -50 -46 -119z" />
<glyph unicode="&#xb1;" horiz-adv-x="1063" d="M160 620v147h298v318h147v-318h298v-147h-298v-318h-147v318h-298zM187 0v147h693v-147h-693z" />
<glyph unicode="&#xb2;" horiz-adv-x="581" d="M48 1085v82q184 184 231 240q96 113 96 182q0 99 -107 99q-51 0 -99 -24l-28 -110l-75 5v156q103 57 226 57q151 0 198 -94q15 -32 15 -77t-22.5 -93.5t-60.5 -99.5q-52 -70 -190 -213l2 -5h178l41 106l72 -11l-11 -200h-466z" />
<glyph unicode="&#xb3;" horiz-adv-x="548" d="M44 1114v165l73 6l26 -106q42 -21 86 -21t65 7.5t38 21.5q35 30 35 75t-10 69t-27 39q-33 29 -92 29h-44v84h46q103 0 103 108q0 55 -28.5 75.5t-59.5 20.5q-51 0 -99 -16l-26 -106l-73 6v164q92 37 199.5 37t162 -42.5t54.5 -119.5q0 -103 -106 -163q129 -43 129 -160 q0 -103 -72 -161q-65 -53 -176.5 -53t-203.5 41z" />
<glyph unicode="&#xb4;" horiz-adv-x="1052" d="M397 1275v32l203 363l182 -10v-66l-280 -329z" />
<glyph unicode="&#xb5;" horiz-adv-x="1254" d="M50 987l20 98l313 22v-704q0 -248 137 -291q43 -14 98 -14q141 0 257 127v728l-183 34l20 98l343 22v-975l153 -34l-20 -98q-19 -7 -38 -12q-43 -10 -86 -10q-116 0 -169 178q-65 -79 -117 -111q-105 -67 -234.5 -67t-199.5 89l-10 -6l49 -496l-180 -22v1410z" />
<glyph unicode="&#xb6;" horiz-adv-x="1152" d="M90 908q0 219 127 335q120 110 321 110h514l20 -98l-152 -34v-1093q0 -196 -112 -319q-102 -111 -253.5 -111t-263.5 47v112q100 -31 190.5 -31t128.5 16t64 52q56 77 56 239v1091h-140v-739h-65q-183 0 -301 99q-134 112 -134 324z" />
<glyph unicode="&#xb7;" horiz-adv-x="584" d="M180 660q0 25 7 53t19 49q28 46 62.5 46t62.5 -7t49 -19q44 -28 44 -62t-7 -62t-19 -49q-28 -46 -62.5 -46t-62.5 7t-48.5 19.5t-32.5 29t-12 41.5z" />
<glyph unicode="&#xb8;" horiz-adv-x="818" d="M200 -317q98 -40 180 -40q54 0 83 13q3 7 6 16q8 24 8 53q0 61 -161 99l-34 55l61 158h132l-49 -135q94 -25 129 -52q63 -51 63 -125q0 -126 -132 -169q-43 -13 -117.5 -13t-168.5 47v93z" />
<glyph unicode="&#xb9;" horiz-adv-x="446" d="M50 1705l182 57h66v-591l101 -17l-10 -69h-313l-10 69l102 17v487h-113z" />
<glyph unicode="&#xba;" horiz-adv-x="581" d="M40 1031v46q0 141 72 221q68 77 179 77q178 0 231 -125q19 -43 19 -101v-47q0 -202 -143 -270q-48 -22 -112 -22q-124 0 -185 60t-61 161zM165 1048q0 -117 86 -149q24 -9 45 -9q50 0 90 30q30 56 30 153v59q0 127 -86 155q-25 8 -46 8q-48 0 -89 -30q-30 -53 -30 -158 v-59z" />
<glyph unicode="&#xbb;" horiz-adv-x="1063" d="M170 159v22l167 385l-167 385v22h85l266 -389v-36l-266 -389h-85zM433 115v22l300 419v20l-300 419v22h85l395 -421v-60l-395 -421h-85z" />
<glyph unicode="&#xbc;" horiz-adv-x="1374" d="M90 1296l182 57h66v-591l101 -17l-10 -69h-313l-10 69l102 17v487h-113zM124 0v20l979 1333h105v-20l-979 -1333h-105zM760 224l270 453h127l-265 -431h144v148h130v-148h86l12 -70l-98 -17v-73l96 -17l-10 -69h-322l-10 69l116 17v75h-264z" />
<glyph unicode="&#xbd;" horiz-adv-x="1433" d="M110 1296l182 57h66v-591l101 -17l-10 -69h-313l-10 69l102 17v487h-113zM144 0v20l979 1333h105v-20l-979 -1333h-105zM846 0v82q185 185 231 240q96 113 96 182q0 99 -107 99q-51 0 -99 -24l-28 -110l-75 5v156q103 57 226 57q151 0 198 -95q15 -31 15 -76t-22.5 -93.5 t-60.5 -99.5q-52 -70 -190 -213l2 -5h178l41 106l72 -11l-11 -200h-466z" />
<glyph unicode="&#xbe;" horiz-adv-x="1423" d="M110 717v165l73 6l26 -106q42 -21 86 -21t65 7.5t38 21.5q35 30 35 75t-10 69t-27 39q-33 29 -92 29h-44v84h46q103 0 103 108q0 55 -28.5 75.5t-59.5 20.5q-51 0 -99 -16l-26 -106l-73 6v164q93 37 200 37t161.5 -42.5t54.5 -119.5q0 -103 -106 -163q129 -43 129 -160 q0 -103 -72 -161q-65 -53 -176.5 -53t-203.5 41zM173 0v20l979 1333h105v-20l-979 -1333h-105zM809 224l270 453h127l-265 -431h144v148h130v-148h86l12 -70l-98 -17v-73l96 -17l-10 -69h-322l-10 69l116 17v75h-264z" />
<glyph unicode="&#xbf;" horiz-adv-x="979" d="M100 -184q0 144 122 275q42 45 100 98l151 138q119 107 119 188q0 74 -92 74q-65 0 -139 -31v101q79 50 183 50q153 0 209 -109q19 -36 19 -79.5t-9 -79.5t-30 -73q-42 -73 -137 -160l-152 -140q-93 -87 -120 -128q-44 -68 -44 -113.5t14 -72.5t44 -48q65 -43 198 -43 q106 0 180 28l71 229l112 -17v-277q-159 -83 -374 -83q-425 0 -425 273zM451 933q0 38 8 68.5t21 54.5q30 51 69.5 51t70.5 -8t54 -21.5t36 -32t13 -46.5t-8 -59t-21 -54q-30 -52 -69 -52t-70 8t-55 22q-49 31 -49 69z" />
<glyph unicode="&#xc0;" horiz-adv-x="1218" d="M-8 98l108 29l440 1226h149l429 -1226l108 -29l-20 -98h-385l-20 98l128 29l-94 279h-491l-96 -279l128 -29l-20 -98h-344zM304 1708v66l192 10l298 -281v-32l-115 -11zM389 535h402l-194 569h-10z" />
<glyph unicode="&#xc1;" horiz-adv-x="1218" d="M-8 98l108 29l440 1226h149l429 -1226l108 -29l-20 -98h-385l-20 98l128 29l-94 279h-491l-96 -279l128 -29l-20 -98h-344zM389 535h402l-194 569h-10zM472 1471v32l298 281l192 -10v-66l-375 -248z" />
<glyph unicode="&#xc2;" horiz-adv-x="1218" d="M-8 98l108 29l440 1226h149l429 -1226l108 -29l-20 -98h-385l-20 98l128 29l-94 279h-491l-96 -279l128 -29l-20 -98h-344zM281 1470v32l283 292l133 -10l273 -282v-32l-125 -10l-238 192l-231 -192zM389 535h402l-194 569h-10z" />
<glyph unicode="&#xc3;" horiz-adv-x="1218" d="M-8 98l108 29l440 1226h149l429 -1226l108 -29l-20 -98h-385l-20 98l128 29l-94 279h-491l-96 -279l128 -29l-20 -98h-344zM214 1495v25q0 113 58.5 171t161.5 58q82 0 216 -66q50 -25 93 -45.5t72 -20.5q83 0 83 120l117 10v-47q0 -106 -53.5 -167.5t-154.5 -61.5 q-73 0 -219 66q-56 25 -103 45.5t-71 20.5t-40.5 -4t-27.5 -15q-23 -23 -23 -79zM389 535h402l-194 569h-10z" />
<glyph unicode="&#xc4;" horiz-adv-x="1218" d="M-8 98l108 29l440 1226h149l429 -1226l108 -29l-20 -98h-385l-20 98l128 29l-94 279h-491l-96 -279l128 -29l-20 -98h-344zM277 1584.5q0 21.5 7 44.5t20 41q26 37 57 37t54 -7t39 -19q36 -26 36 -57.5t-7 -54t-19 -39.5q-26 -38 -57 -38t-54 7t-40 19.5t-26.5 28.5 t-9.5 37.5zM389 535h402l-194 569h-10zM737 1584.5q0 21.5 7 44.5t19 41q26 37 57 37t54 -7t40 -19q36 -25 36 -57t-7 -54.5t-19 -39.5q-27 -38 -58 -38t-54 7t-39.5 19.5t-26 28.5t-9.5 37.5z" />
<glyph unicode="&#xc5;" horiz-adv-x="1218" d="M-8 98l108 29l440 1226h149l429 -1226l108 -29l-20 -98h-385l-20 98l128 29l-94 279h-491l-96 -279l128 -29l-20 -98h-344zM389 535h402l-194 569h-10zM431 1577q0 45 16 85t43 67q55 55 140 55q123 0 164 -84q14 -28 14 -74.5t-15.5 -87t-42.5 -66.5q-54 -52 -140 -52 q-77 0 -114 28t-51 56t-14 73zM531 1610.5q0 -56.5 26.5 -84.5t53.5 -28q54 0 89 19q9 45 9 89.5t-26.5 72.5t-53.5 28q-47 0 -89 -19q-9 -21 -9 -77.5z" />
<glyph unicode="&#xc6;" horiz-adv-x="1782" d="M-12 98l130 31l638 1224h868l24 -300l-103 -22l-83 193h-452v-452h357l34 122l99 -20v-334l-99 -20l-34 123h-357v-514h481l83 193l104 -23l-24 -299h-967l-20 98l153 34v274h-392l-144 -281l108 -27l-20 -98h-364zM494 535h326v634z" />
<glyph unicode="&#xc7;" horiz-adv-x="1176" d="M100 515v89q0 381 154 576t451 195q212 0 363 -59l21 -270l-105 -22l-83 195q-85 27 -197 27q-203 0 -325 -88q-40 -92 -64.5 -220t-24.5 -255v-133q0 -214 117.5 -328.5t311 -114.5t373.5 104v-106q-169 -109 -371 -124l-28 -79q94 -25 129 -52q63 -51 63 -125 q0 -126 -133 -169q-42 -13 -116.5 -13t-168.5 47v93q98 -40 180 -40q54 0 83 13q3 7 6 16q8 24 8 53q0 61 -161 99l-34 55l39 102q-488 35 -488 534z" />
<glyph unicode="&#xc8;" horiz-adv-x="1191" d="M76 98l153 34v1089l-153 34l20 98h937l24 -300l-103 -22l-83 193h-452v-452h357l34 122l99 -20v-334l-99 -20l-34 123h-357v-514h481l83 193l104 -23l-24 -299h-967zM279 1708v66l192 10l298 -281v-32l-115 -11z" />
<glyph unicode="&#xc9;" horiz-adv-x="1191" d="M76 98l153 34v1089l-153 34l20 98h937l24 -300l-103 -22l-83 193h-452v-452h357l34 122l99 -20v-334l-99 -20l-34 123h-357v-514h481l83 193l104 -23l-24 -299h-967zM447 1471v32l298 281l192 -10v-66l-375 -248z" />
<glyph unicode="&#xca;" horiz-adv-x="1191" d="M76 98l153 34v1089l-153 34l20 98h937l24 -300l-103 -22l-83 193h-452v-452h357l34 122l99 -20v-334l-99 -20l-34 123h-357v-514h481l83 193l104 -23l-24 -299h-967zM256 1470v32l283 292l133 -10l273 -282v-32l-125 -10l-238 192l-231 -192z" />
<glyph unicode="&#xcb;" horiz-adv-x="1191" d="M76 98l153 34v1089l-153 34l20 98h937l24 -300l-103 -22l-83 193h-452v-452h357l34 122l99 -20v-334l-99 -20l-34 123h-357v-514h481l83 193l104 -23l-24 -299h-967zM252 1584.5q0 21.5 7 44.5t20 41q26 37 57 37t54 -7t39 -19q36 -26 36 -57.5t-7 -54t-19 -39.5 q-26 -38 -57 -38t-54 7t-40 19.5t-26.5 28.5t-9.5 37.5zM712 1584.5q0 21.5 7 44.5t19 41q26 37 57 37t54 -7t40 -19q36 -25 36 -57t-7 -54.5t-19 -39.5q-27 -38 -58 -38t-54 7t-39.5 19.5t-26 28.5t-9.5 37.5z" />
<glyph unicode="&#xcc;" horiz-adv-x="643" d="M9 1708v66l192 10l298 -281v-32l-115 -11zM72 98l153 34v1089l-153 34l20 98h455l20 -98l-152 -34v-1089l152 -34l-20 -98h-455z" />
<glyph unicode="&#xcd;" horiz-adv-x="643" d="M72 98l153 34v1089l-153 34l20 98h455l20 -98l-152 -34v-1089l152 -34l-20 -98h-455zM176 1471v32l298 281l192 -10v-66l-375 -248z" />
<glyph unicode="&#xce;" horiz-adv-x="643" d="M-15 1470v32l283 292l133 -10l273 -282v-32l-125 -10l-238 192l-231 -192zM72 98l153 34v1089l-153 34l20 98h455l20 -98l-152 -34v-1089l152 -34l-20 -98h-455z" />
<glyph unicode="&#xcf;" horiz-adv-x="643" d="M-19 1584.5q0 21.5 7 44.5t20 41q26 37 57 37t54 -7t39 -19q36 -26 36 -57.5t-7 -54t-19 -39.5q-26 -38 -57 -38t-54 7t-40 19.5t-26.5 28.5t-9.5 37.5zM72 98l153 34v1089l-153 34l20 98h455l20 -98l-152 -34v-1089l152 -34l-20 -98h-455zM441 1584.5q0 21.5 7 44.5 t19 41q26 37 57 37t54 -7t40 -19q36 -25 36 -57t-7 -54.5t-19 -39.5q-27 -38 -58 -38t-54 7t-39.5 19.5t-26 28.5t-9.5 37.5z" />
<glyph unicode="&#xd0;" horiz-adv-x="1362" d="M78 98l153 34v497h-153v129h153v463l-153 34l20 98h540q456 0 571 -339q37 -110 37 -249v-78q0 -317 -154 -501q-156 -186 -431 -186h-563zM421 129h211q152 0 278 49q40 52 70 115q76 160 76 329v94q0 369 -255 473q-86 35 -202 35h-178v-466h290v-129h-290v-500z" />
<glyph unicode="&#xd1;" horiz-adv-x="1532" d="M72 98l153 34v1089l-153 34l20 98h420l655 -1217h16v1085l-154 34l20 98h407l20 -98l-152 -34v-1221h-287l-656 1218h-16v-1086l152 -34l-20 -98h-405zM374 1495v25q0 113 58.5 171t161.5 58q82 0 216 -66q50 -25 93 -45.5t72 -20.5q83 0 83 120l117 10v-47 q0 -106 -53.5 -167.5t-154.5 -61.5q-73 0 -219 66q-56 25 -103 45.5t-71 20.5t-40.5 -4t-27.5 -15q-23 -23 -23 -79z" />
<glyph unicode="&#xd2;" horiz-adv-x="1345" d="M102 525v79q0 389 148 580t433 191q560 0 560 -548v-78q0 -377 -144 -574t-436 -197q-561 0 -561 547zM292 570q0 -221 112.5 -342t288.5 -121q88 0 165.5 26.5t126.5 62.5q68 212 68 454v133q0 236 -104.5 349.5t-295.5 113.5q-89 0 -168 -27.5t-124 -60.5 q-69 -212 -69 -455v-133zM354 1708v66l192 10l298 -281v-32l-115 -11z" />
<glyph unicode="&#xd3;" horiz-adv-x="1345" d="M102 525v79q0 389 148 580t433 191q560 0 560 -548v-78q0 -377 -144 -574t-436 -197q-561 0 -561 547zM292 570q0 -221 112.5 -342t288.5 -121q88 0 165.5 26.5t126.5 62.5q68 212 68 454v133q0 236 -104.5 349.5t-295.5 113.5q-89 0 -168 -27.5t-124 -60.5 q-69 -212 -69 -455v-133zM522 1471v32l298 281l192 -10v-66l-375 -248z" />
<glyph unicode="&#xd4;" horiz-adv-x="1345" d="M102 525v79q0 389 148 580t433 191q560 0 560 -548v-78q0 -377 -144 -574t-436 -197q-561 0 -561 547zM292 570q0 -221 112.5 -342t288.5 -121q88 0 165.5 26.5t126.5 62.5q68 212 68 454v133q0 236 -104.5 349.5t-295.5 113.5q-89 0 -168 -27.5t-124 -60.5 q-69 -212 -69 -455v-133zM331 1470v32l283 292l133 -10l273 -282v-32l-125 -10l-238 192l-231 -192z" />
<glyph unicode="&#xd5;" horiz-adv-x="1345" d="M102 525v79q0 389 148 580t433 191q560 0 560 -548v-78q0 -377 -144 -574t-436 -197q-561 0 -561 547zM253 1495v25q0 113 58.5 171t161.5 58q82 0 216 -66q50 -25 93 -45.5t72 -20.5q83 0 83 120l117 10v-47q0 -106 -53.5 -167.5t-154.5 -61.5q-73 0 -219 66 q-56 25 -103 45.5t-71 20.5t-40.5 -4t-27.5 -15q-23 -23 -23 -79zM292 570q0 -221 112.5 -342t288.5 -121q88 0 165.5 26.5t126.5 62.5q68 212 68 454v133q0 236 -104.5 349.5t-295.5 113.5q-89 0 -168 -27.5t-124 -60.5q-69 -212 -69 -455v-133z" />
<glyph unicode="&#xd6;" horiz-adv-x="1345" d="M102 525v79q0 389 148 580t433 191q560 0 560 -548v-78q0 -377 -144 -574t-436 -197q-561 0 -561 547zM292 570q0 -221 112.5 -342t288.5 -121q88 0 165.5 26.5t126.5 62.5q68 212 68 454v133q0 236 -104.5 349.5t-295.5 113.5q-89 0 -168 -27.5t-124 -60.5 q-69 -212 -69 -455v-133zM327 1584.5q0 21.5 7 44.5t20 41q26 37 57 37t54 -7t39 -19q36 -26 36 -57.5t-7 -54t-19 -39.5q-26 -38 -57 -38t-54 7t-40 19.5t-26.5 28.5t-9.5 37.5zM787 1584.5q0 21.5 7 44.5t19 41q26 37 57 37t54 -7t40 -19q36 -25 36 -57t-7 -54.5 t-19 -39.5q-27 -38 -58 -38t-54 7t-39.5 19.5t-26 28.5t-9.5 37.5z" />
<glyph unicode="&#xd7;" horiz-adv-x="1021" d="M160 347l246 246l-246 247l104 104l246 -247l247 247l104 -104l-247 -247l247 -246l-104 -104l-247 246l-246 -246z" />
<glyph unicode="&#xd8;" horiz-adv-x="1345" d="M102 525v79q0 389 148 580t433 191q75 0 140 -10l55 175h140v-20l-60 -191q285 -112 285 -502v-78q0 -377 -144 -574t-436 -197q-67 0 -126 8l-67 -216h-140v20l71 228q-299 108 -299 507zM292 570q0 -263 161 -387l328 1047q-58 16 -137.5 16t-158.5 -27.5t-124 -60.5 q-69 -212 -69 -455v-133zM580 121q53 -14 127 -14t151.5 26.5t126.5 62.5q68 212 68 454v133q0 236 -105 349q-18 21 -40 37z" />
<glyph unicode="&#xd9;" horiz-adv-x="1358" d="M16 1255l20 98h456l20 -98l-152 -34v-675q0 -223 94 -331t259 -108q79 0 148 23t110 53q78 142 78 338v700l-153 34l20 98h406l20 -98l-152 -34v-677q0 -291 -127 -428.5t-383 -137.5t-383 124.5t-127 388.5v730zM396 1708v66l192 10l298 -281v-32l-115 -11z" />
<glyph unicode="&#xda;" horiz-adv-x="1358" d="M16 1255l20 98h456l20 -98l-152 -34v-675q0 -223 94 -331t259 -108q79 0 148 23t110 53q78 142 78 338v700l-153 34l20 98h406l20 -98l-152 -34v-677q0 -291 -127 -428.5t-383 -137.5t-383 124.5t-127 388.5v730zM564 1471v32l298 281l192 -10v-66l-375 -248z" />
<glyph unicode="&#xdb;" horiz-adv-x="1358" d="M16 1255l20 98h456l20 -98l-152 -34v-675q0 -223 94 -331t259 -108q79 0 148 23t110 53q78 142 78 338v700l-153 34l20 98h406l20 -98l-152 -34v-677q0 -291 -127 -428.5t-383 -137.5t-383 124.5t-127 388.5v730zM373 1470v32l283 292l133 -10l273 -282v-32l-125 -10 l-238 192l-231 -192z" />
<glyph unicode="&#xdc;" horiz-adv-x="1358" d="M16 1255l20 98h456l20 -98l-152 -34v-675q0 -223 94 -331t259 -108q79 0 148 23t110 53q78 142 78 338v700l-153 34l20 98h406l20 -98l-152 -34v-677q0 -291 -127 -428.5t-383 -137.5t-383 124.5t-127 388.5v730zM369 1584.5q0 21.5 7 44.5t20 41q26 37 57 37t54 -7 t39 -19q36 -26 36 -57.5t-7 -54t-19 -39.5q-26 -38 -57 -38t-54 7t-40 19.5t-26.5 28.5t-9.5 37.5zM829 1584.5q0 21.5 7 44.5t19 41q26 37 57 37t54 -7t40 -19q36 -25 36 -57t-7 -54.5t-19 -39.5q-27 -38 -58 -38t-54 7t-39.5 19.5t-26 28.5t-9.5 37.5z" />
<glyph unicode="&#xdd;" horiz-adv-x="1122" d="M-52 1254l20 99h410l20 -99l-132 -28l321 -504h16l304 504l-125 28l20 99h352l20 -99l-111 -28l-395 -650v-444l152 -34l-20 -98h-455l-20 98l153 34v446l-416 648zM453 1471v32l298 281l192 -10v-66l-375 -248z" />
<glyph unicode="&#xde;" horiz-adv-x="1098" d="M72 98l153 34v1089l-153 34l20 98h455l20 -98l-152 -34v-149h168q437 0 437 -325q0 -181 -124 -288q-114 -99 -290 -99h-191v-228l212 -34l-20 -98h-515zM415 489h150q96 0 149 13.5t81 24.5q31 97 31 180q0 236 -291 236h-120v-454z" />
<glyph unicode="&#xdf;" horiz-adv-x="1289" d="M96 987l20 98h143v64q0 298 239 384q81 29 173.5 29t159 -17t115.5 -55q108 -83 108 -250q0 -188 -140 -340q-43 -46 -94 -91q160 -95 266 -209q118 -127 118 -286q0 -156 -99 -247q-97 -89 -268 -89t-297 70v231l111 10l46 -168q53 -23 153 -23q69 0 103 12t49 22 q22 51 22 107.5t-8.5 93.5t-30.5 76q-87 154 -354 314v65q187 165 228 314q15 54 15 113q0 227 -215 227q-117 0 -199 -47q-21 -81 -21 -260v-1135h-313l-20 98l153 34v821z" />
<glyph unicode="&#xe0;" horiz-adv-x="1150" d="M108 237q0 370 651 370v95q0 150 -54.5 217.5t-190.5 67.5q-75 0 -150 -15l-60 -212l-98 10v283q154 54 343 54q390 0 390 -372v-603l173 -34l-20 -98l-255 -22l-58 177q-145 -177 -360 -177q-140 0 -225.5 70t-85.5 189zM247 1594v66l175 10l233 -363v-32l-118 -10z M288 271q0 -79 55 -126t137 -47t155 37.5t124 89.5v262q-310 0 -443 -72q-28 -65 -28 -144z" />
<glyph unicode="&#xe1;" horiz-adv-x="1150" d="M108 237q0 370 651 370v95q0 150 -54.5 217.5t-190.5 67.5q-75 0 -150 -15l-60 -212l-98 10v283q154 54 343 54q390 0 390 -372v-603l173 -34l-20 -98l-255 -22l-58 177q-145 -177 -360 -177q-140 0 -225.5 70t-85.5 189zM288 271q0 -79 55 -126t137 -47t155 37.5 t124 89.5v262q-310 0 -443 -72q-28 -65 -28 -144zM470 1275v32l203 363l182 -10v-66l-280 -329z" />
<glyph unicode="&#xe2;" horiz-adv-x="1150" d="M108 237q0 370 651 370v95q0 150 -54.5 217.5t-190.5 67.5q-75 0 -150 -15l-60 -212l-98 10v283q154 54 343 54q390 0 390 -372v-603l173 -34l-20 -98l-255 -22l-58 177q-145 -177 -360 -177q-140 0 -225.5 70t-85.5 189zM253 1275v32l233 373l133 -10l233 -363v-32 l-125 -10l-193 252l-186 -252zM288 271q0 -79 55 -126t137 -47t155 37.5t124 89.5v262q-310 0 -443 -72q-28 -65 -28 -144z" />
<glyph unicode="&#xe3;" horiz-adv-x="1150" d="M108 237q0 370 651 370v95q0 150 -54.5 217.5t-190.5 67.5q-75 0 -150 -15l-60 -212l-98 10v283q154 54 343 54q390 0 390 -372v-603l173 -34l-20 -98l-255 -22l-58 177q-145 -177 -360 -177q-140 0 -225.5 70t-85.5 189zM150 1282v25q0 113 58.5 171t161.5 58 q82 0 216 -66q50 -25 93 -45.5t72 -20.5q83 0 83 120l117 10v-47q0 -106 -53.5 -167.5t-154.5 -61.5q-73 0 -219 66q-56 25 -103 45.5t-71 20.5t-40.5 -4t-27.5 -15q-23 -23 -23 -79zM288 271q0 -79 55 -126t137 -47t155 37.5t124 89.5v262q-310 0 -443 -72 q-28 -65 -28 -144z" />
<glyph unicode="&#xe4;" horiz-adv-x="1150" d="M108 237q0 370 651 370v95q0 150 -54.5 217.5t-190.5 67.5q-75 0 -150 -15l-60 -212l-98 10v283q154 54 343 54q390 0 390 -372v-603l173 -34l-20 -98l-255 -22l-58 177q-145 -177 -360 -177q-140 0 -225.5 70t-85.5 189zM232 1387.5q0 21.5 7 44.5t19 40q27 38 58 38 t54 -7t40 -19q35 -27 35 -58t-7 -53.5t-19 -40.5q-26 -37 -57 -37t-54 7t-40 19.5t-26.5 28.5t-9.5 37.5zM288 271q0 -79 55 -126t137 -47t155 37.5t124 89.5v262q-310 0 -443 -72q-28 -65 -28 -144zM632 1387.5q0 21.5 7 44.5t19 40q26 38 57 38t54 -7t40 -19 q36 -27 36 -58t-7 -53.5t-20 -40.5q-26 -37 -57 -37t-54 7t-39.5 19.5t-26 28.5t-9.5 37.5z" />
<glyph unicode="&#xe5;" horiz-adv-x="1150" d="M108 237q0 370 651 370v95q0 150 -54.5 217.5t-190.5 67.5q-75 0 -150 -15l-60 -212l-98 10v283q154 54 343 54q390 0 390 -372v-603l173 -34l-20 -98l-255 -22l-58 177q-145 -177 -360 -177q-140 0 -225.5 70t-85.5 189zM288 271q0 -79 55 -126t137 -47t155 37.5 t124 89.5v262q-310 0 -443 -72q-28 -65 -28 -144zM367 1443.5q0 51.5 17 95.5t45 73q58 58 147 58q129 0 173 -93q15 -32 15 -85.5t-16 -98t-45 -73.5q-55 -55 -147 -55q-130 0 -174 95q-15 32 -15 83.5zM472 1492.5q0 -54.5 8 -79t21 -41.5q27 -34 55 -34q57 0 95 19 q9 50 9 95.5t-8 70t-21 41.5q-27 34 -53 34q-45 0 -87 -19q-19 -32 -19 -86.5z" />
<glyph unicode="&#xe6;" horiz-adv-x="1621" d="M98 237q0 370 641 370v95q0 140 -43 253q-87 32 -203 32q-44 0 -139 -15l-60 -212l-98 10v283q133 54 303 54q269 0 363 -159q121 159 332 159q202 0 286 -116q77 -106 77 -348v-120h-638v-76q0 -177 101 -273q81 -76 192 -76q152 0 292 65v-96q-147 -89 -352 -89 q-194 0 -304 110q-37 37 -62 90q-86 -126 -238 -178q-64 -22 -139 -22t-130 17t-95 50q-86 70 -86 192zM278 291.5q0 -64.5 16 -98t42.5 -54.5t60.5 -31t80.5 -10t96.5 19.5t88 44.5q57 38 98 84q-21 73 -21 168v73q-311 0 -433 -72q-28 -59 -28 -123.5zM922 643h445 q0 263 -107 323q-38 21 -94 21q-106 0 -187 -60q-44 -113 -57 -284z" />
<glyph unicode="&#xe7;" horiz-adv-x="972" d="M96 399v93q0 296 126.5 455.5t349.5 159.5q160 0 305 -63l19 -234l-110 -23l-69 179q-71 21 -141 21q-136 0 -240 -60q-60 -164 -60 -375v-109q0 -160 93 -252.5t229 -92.5t290 73v-96q-127 -79 -282 -94l-28 -79q94 -25 129 -52q63 -51 63 -125q0 -126 -132 -169 q-43 -13 -117.5 -13t-168.5 47v93q98 -40 180 -40q54 0 83 13q3 7 6 16q8 24 8 53q0 61 -161 99l-34 55l39 103q-161 15 -259 104q-118 109 -118 313z" />
<glyph unicode="&#xe8;" horiz-adv-x="1034" d="M96 414v83q0 287 127.5 448.5t339 161.5t301.5 -103.5t90 -360.5v-120h-678v-76q0 -168 92.5 -258.5t235 -90.5t297.5 65v-96q-168 -89 -373 -89t-318.5 112t-113.5 324zM269 1594v66l175 10l233 -363v-32l-118 -10zM279 643h485q0 182 -52.5 263t-168.5 81 q-59 0 -116 -18t-91 -42q-47 -121 -57 -284z" />
<glyph unicode="&#xe9;" horiz-adv-x="1034" d="M96 414v83q0 287 127.5 448.5t339 161.5t301.5 -103.5t90 -360.5v-120h-678v-76q0 -168 92.5 -258.5t235 -90.5t297.5 65v-96q-168 -89 -373 -89t-318.5 112t-113.5 324zM279 643h485q0 182 -52.5 263t-168.5 81q-59 0 -116 -18t-91 -42q-47 -121 -57 -284zM492 1275v32 l203 363l182 -10v-66l-280 -329z" />
<glyph unicode="&#xea;" horiz-adv-x="1034" d="M96 414v83q0 287 127.5 448.5t339 161.5t301.5 -103.5t90 -360.5v-120h-678v-76q0 -168 92.5 -258.5t235 -90.5t297.5 65v-96q-168 -89 -373 -89t-318.5 112t-113.5 324zM275 1275v32l233 373l133 -10l233 -363v-32l-125 -10l-193 252l-186 -252zM279 643h485 q0 182 -52.5 263t-168.5 81q-59 0 -116 -18t-91 -42q-47 -121 -57 -284z" />
<glyph unicode="&#xeb;" horiz-adv-x="1034" d="M96 414v83q0 287 127.5 448.5t339 161.5t301.5 -103.5t90 -360.5v-120h-678v-76q0 -168 92.5 -258.5t235 -90.5t297.5 65v-96q-168 -89 -373 -89t-318.5 112t-113.5 324zM254 1387.5q0 21.5 7 44.5t19 40q27 38 58 38t54 -7t40 -19q35 -27 35 -58t-7 -53.5t-19 -40.5 q-26 -37 -57 -37t-54 7t-40 19.5t-26.5 28.5t-9.5 37.5zM279 643h485q0 182 -52.5 263t-168.5 81q-59 0 -116 -18t-91 -42q-47 -121 -57 -284zM654 1387.5q0 21.5 7 44.5t19 40q26 38 57 38t54 -7t40 -19q36 -27 36 -58t-7 -53.5t-20 -40.5q-26 -37 -57 -37t-54 7 t-39.5 19.5t-26 28.5t-9.5 37.5z" />
<glyph unicode="&#xec;" horiz-adv-x="660" d="M12 1594v66l175 10l233 -363v-32l-118 -10zM106 98l153 34v821l-153 34l20 98l313 22v-975l153 -34l-20 -98h-446z" />
<glyph unicode="&#xed;" horiz-adv-x="660" d="M106 98l153 34v821l-153 34l20 98l313 22v-975l153 -34l-20 -98h-446zM235 1275v32l203 363l182 -10v-66l-280 -329z" />
<glyph unicode="&#xee;" horiz-adv-x="660" d="M18 1275v32l233 373l133 -10l233 -363v-32l-125 -10l-193 252l-186 -252zM106 98l153 34v821l-153 34l20 98l313 22v-975l153 -34l-20 -98h-446z" />
<glyph unicode="&#xef;" horiz-adv-x="660" d="M-3 1387.5q0 21.5 7 44.5t19 40q27 38 58 38t54 -7t40 -19q35 -27 35 -58t-7 -53.5t-19 -40.5q-26 -37 -57 -37t-54 7t-40 19.5t-26.5 28.5t-9.5 37.5zM106 98l153 34v821l-153 34l20 98l313 22v-975l153 -34l-20 -98h-446zM397 1387.5q0 21.5 7 44.5t19 40q26 38 57 38 t54 -7t40 -19q36 -27 36 -58t-7 -53.5t-20 -40.5q-26 -37 -57 -37t-54 7t-39.5 19.5t-26 28.5t-9.5 37.5z" />
<glyph unicode="&#xf0;" d="M96 419v93q0 281 132 442q124 153 329 153q104 0 178 -52q-46 120 -150 240l-252 -120l-39 84l224 106q-101 97 -225 175l149 22q112 -54 209 -134l235 112l39 -83l-201 -96q235 -238 280 -553q14 -95 14 -152v-94q0 -258 -118 -414q-127 -170 -353 -170q-222 0 -339 120 q-112 115 -112 321zM276 453q0 -177 95 -272q83 -83 206 -83q106 0 201 60q60 120 60 345v119q0 199 -98 291q-78 74 -203 74q-116 0 -201 -60q-60 -131 -60 -355v-119z" />
<glyph unicode="&#xf1;" horiz-adv-x="1346" d="M106 98l153 34v821l-153 34l20 98l235 22l58 -178q157 178 349.5 178t277.5 -93.5t85 -287.5v-594l153 -34l-20 -98h-446l-20 98l153 34v550q0 153 -49.5 229t-184.5 76t-278 -129v-726l153 -34l-20 -98h-446zM307 1282v25q0 113 58.5 171t161.5 58q82 0 216 -66 q50 -25 93 -45.5t72 -20.5q83 0 83 120l117 10v-47q0 -106 -53.5 -167.5t-154.5 -61.5q-73 0 -219 66q-56 25 -103 45.5t-71 20.5t-40.5 -4t-27.5 -15q-23 -23 -23 -79z" />
<glyph unicode="&#xf2;" d="M96 419v93q0 276 126.5 435.5t339.5 159.5t334.5 -116.5t121.5 -334.5v-94q0 -265 -126 -424.5t-344.5 -159.5t-335 116.5t-116.5 324.5zM263 1594v66l175 10l233 -363v-32l-118 -10zM276 453q0 -168 86.5 -261.5t214.5 -93.5q105 0 201 60q60 126 60 345v119 q0 171 -78.5 266.5t-222.5 98.5q-115 0 -201 -60q-60 -136 -60 -355v-119z" />
<glyph unicode="&#xf3;" d="M96 419v93q0 276 126.5 435.5t339.5 159.5t334.5 -116.5t121.5 -334.5v-94q0 -265 -126 -424.5t-344.5 -159.5t-335 116.5t-116.5 324.5zM276 453q0 -168 86.5 -261.5t214.5 -93.5q105 0 201 60q60 126 60 345v119q0 171 -78.5 266.5t-222.5 98.5q-115 0 -201 -60 q-60 -136 -60 -355v-119zM486 1275v32l203 363l182 -10v-66l-280 -329z" />
<glyph unicode="&#xf4;" d="M96 419v93q0 276 126.5 435.5t339.5 159.5t334.5 -116.5t121.5 -334.5v-94q0 -265 -126 -424.5t-344.5 -159.5t-335 116.5t-116.5 324.5zM269 1275v32l233 373l133 -10l233 -363v-32l-125 -10l-193 252l-186 -252zM276 453q0 -168 86.5 -261.5t214.5 -93.5q105 0 201 60 q60 126 60 345v119q0 171 -78.5 266.5t-222.5 98.5q-115 0 -201 -60q-60 -136 -60 -355v-119z" />
<glyph unicode="&#xf5;" d="M96 419v93q0 276 126.5 435.5t339.5 159.5t334.5 -116.5t121.5 -334.5v-94q0 -265 -126 -424.5t-344.5 -159.5t-335 116.5t-116.5 324.5zM165 1282v25q0 113 58.5 171t161.5 58q82 0 216 -66q50 -25 93 -45.5t72 -20.5q83 0 83 120l117 10v-47q0 -106 -53.5 -167.5 t-154.5 -61.5q-73 0 -219 66q-56 25 -103 45.5t-71 20.5t-40.5 -4t-27.5 -15q-23 -23 -23 -79zM276 453q0 -168 86.5 -261.5t214.5 -93.5q105 0 201 60q60 126 60 345v119q0 171 -78.5 266.5t-222.5 98.5q-115 0 -201 -60q-60 -136 -60 -355v-119z" />
<glyph unicode="&#xf6;" d="M96 419v93q0 276 126.5 435.5t339.5 159.5t334.5 -116.5t121.5 -334.5v-94q0 -265 -126 -424.5t-344.5 -159.5t-335 116.5t-116.5 324.5zM248 1387.5q0 21.5 7 44.5t19 40q27 38 58 38t54 -7t40 -19q35 -27 35 -58t-7 -53.5t-19 -40.5q-26 -37 -57 -37t-54 7t-40 19.5 t-26.5 28.5t-9.5 37.5zM276 453q0 -168 86.5 -261.5t214.5 -93.5q105 0 201 60q60 126 60 345v119q0 171 -78.5 266.5t-222.5 98.5q-115 0 -201 -60q-60 -136 -60 -355v-119zM648 1387.5q0 21.5 7 44.5t19 40q26 38 57 38t54 -7t40 -19q36 -27 36 -58t-7 -53.5t-20 -40.5 q-26 -37 -57 -37t-54 7t-39.5 19.5t-26 28.5t-9.5 37.5z" />
<glyph unicode="&#xf7;" horiz-adv-x="1173" d="M160 520v147h853v-147h-853zM487 187.5q0 22.5 6.5 47.5t17.5 44q24 41 55 41t56 -6.5t44 -17.5q39 -25 39 -55.5t-6.5 -55t-17.5 -43.5q-24 -41 -55.5 -41t-56 6.5t-43 17.5t-29 25.5t-10.5 37zM487 952.5q0 22.5 6.5 47.5t17.5 44q24 41 55 41t56 -6.5t44 -18.5 q39 -24 39 -54.5t-6.5 -55t-17.5 -43.5q-24 -41 -55.5 -41t-56 6.5t-43 17.5t-29 25.5t-10.5 37z" />
<glyph unicode="&#xf8;" d="M96 419v93q0 276 126.5 435.5t334.5 159.5q52 0 99 -7l66 211h125v-20l-70 -223q241 -103 241 -412v-94q0 -265 -126 -424.5t-345 -159.5q-58 0 -108 8l-66 -212h-125v20l71 227q-223 102 -223 398zM276 453q0 -176 94 -270l247 794q-37 9 -86 9.5t-104 -17t-91 -42.5 q-60 -136 -60 -355v-119zM479 113q45 -15 97 -15q106 0 202 60q60 126 60 345v119q0 171 -79 266q-13 17 -29 30z" />
<glyph unicode="&#xf9;" horiz-adv-x="1262" d="M38 987l20 98l313 22v-704q0 -156 55 -230.5t195.5 -74.5t261.5 127v728l-183 34l20 98l343 22v-975l153 -34l-20 -98l-235 -22l-58 178q-152 -178 -371 -178q-341 0 -341 381v594zM304 1594v66l175 10l233 -363v-32l-118 -10z" />
<glyph unicode="&#xfa;" horiz-adv-x="1262" d="M38 987l20 98l313 22v-704q0 -156 55 -230.5t195.5 -74.5t261.5 127v728l-183 34l20 98l343 22v-975l153 -34l-20 -98l-235 -22l-58 178q-152 -178 -371 -178q-341 0 -341 381v594zM527 1275v32l203 363l182 -10v-66l-280 -329z" />
<glyph unicode="&#xfb;" horiz-adv-x="1262" d="M38 987l20 98l313 22v-704q0 -156 55 -230.5t195.5 -74.5t261.5 127v728l-183 34l20 98l343 22v-975l153 -34l-20 -98l-235 -22l-58 178q-152 -178 -371 -178q-341 0 -341 381v594zM310 1275v32l233 373l133 -10l233 -363v-32l-125 -10l-193 252l-186 -252z" />
<glyph unicode="&#xfc;" horiz-adv-x="1262" d="M38 987l20 98l313 22v-704q0 -156 55 -230.5t195.5 -74.5t261.5 127v728l-183 34l20 98l343 22v-975l153 -34l-20 -98l-235 -22l-58 178q-152 -178 -371 -178q-341 0 -341 381v594zM289 1387.5q0 21.5 7 44.5t19 40q27 38 58 38t54 -7t40 -19q35 -27 35 -58t-7 -53.5 t-19 -40.5q-26 -37 -57 -37t-54 7t-40 19.5t-26.5 28.5t-9.5 37.5zM689 1387.5q0 21.5 7 44.5t19 40q26 38 57 38t54 -7t40 -19q36 -27 36 -58t-7 -53.5t-20 -40.5q-26 -37 -57 -37t-54 7t-39.5 19.5t-26 28.5t-9.5 37.5z" />
<glyph unicode="&#xfd;" horiz-adv-x="1106" d="M-10 987l20 98h370l20 -98l-125 -19l295 -836h16l296 836l-125 19l20 98h325l20 -98l-97 -19l-357 -966q-90 -249 -177.5 -354t-225.5 -105q-112 0 -217 47l36 131q140 -51 270 -51q87 60 140 205l-407 1093zM508 1275v32l203 363l182 -10v-66l-280 -329z" />
<glyph unicode="&#xfe;" horiz-adv-x="1134" d="M4 -336l153 34v1710l-153 34l20 98l313 22v-610q142 155 328 155q268 0 346 -246q27 -85 27 -205v-94q0 -268 -120 -424q-121 -160 -337 -160q-108 0 -244 25v-305l153 -34l-20 -99h-446zM337 125q108 -27 197 -27q122 0 180.5 21.5t86.5 38.5q57 157 57 345v119 q0 286 -158 347q-47 18 -99 18q-83 0 -183 -65q-43 -28 -81 -64v-733z" />
<glyph unicode="&#xff;" horiz-adv-x="1106" d="M-10 987l20 98h370l20 -98l-125 -19l295 -836h16l296 836l-125 19l20 98h325l20 -98l-97 -19l-357 -966q-90 -249 -177.5 -354t-225.5 -105q-112 0 -217 47l36 131q140 -51 270 -51q87 60 140 205l-407 1093zM270 1387.5q0 21.5 7 44.5t19 40q27 38 58 38t54 -7t40 -19 q35 -27 35 -58t-7 -53.5t-19 -40.5q-26 -37 -57 -37t-54 7t-40 19.5t-26.5 28.5t-9.5 37.5zM670 1387.5q0 21.5 7 44.5t19 40q26 38 57 38t54 -7t40 -19q36 -27 36 -58t-7 -53.5t-20 -40.5q-26 -37 -57 -37t-54 7t-39.5 19.5t-26 28.5t-9.5 37.5z" />
<glyph unicode="&#x152;" horiz-adv-x="1801" d="M102 525v79q0 771 581 771q109 0 199 -22h761l24 -300l-103 -22l-83 193h-452v-452h357l34 122l99 -20v-334l-99 -20l-34 123h-357v-514h481l83 193l104 -23l-24 -299h-830q-81 -22 -180 -22q-561 0 -561 547zM292 570q0 -227 121 -352q107 -111 280 -111q75 0 146 20 v1084q-82 35 -167 35q-133 0 -231 -44q-45 -19 -80 -44q-69 -200 -69 -455v-133z" />
<glyph unicode="&#x153;" horiz-adv-x="1776" d="M96 419v93q0 276 126.5 435.5t334.5 159.5q277 0 393 -182q127 182 363 182q203 0 293 -103.5t90 -360.5v-120h-678v-76q0 -168 92.5 -258.5t235 -90.5t297.5 65v-96q-168 -89 -372 -89q-254 0 -369 172q-5 -6 -10 -13q-126 -159 -344.5 -159t-335 116.5t-116.5 324.5z M276 453q0 -168 86.5 -261.5t214.5 -93.5q105 0 201 60q60 126 60 345v119q0 171 -78.5 266.5t-222.5 98.5q-115 0 -201 -60q-60 -136 -60 -355v-119zM1021 643h485q0 182 -52.5 263t-168.5 81q-59 0 -116 -18t-91 -42q-47 -121 -57 -284z" />
<glyph unicode="&#x178;" horiz-adv-x="1122" d="M-52 1254l20 99h410l20 -99l-132 -28l321 -504h16l304 504l-125 28l20 99h352l20 -99l-111 -28l-395 -650v-444l152 -34l-20 -98h-455l-20 98l153 34v446l-416 648zM258 1584.5q0 21.5 7 44.5t20 41q26 37 57 37t54 -7t39 -19q36 -26 36 -57.5t-7 -54t-19 -39.5 q-26 -38 -57 -38t-54 7t-40 19.5t-26.5 28.5t-9.5 37.5zM718 1584.5q0 21.5 7 44.5t19 41q26 37 57 37t54 -7t40 -19q36 -25 36 -57t-7 -54.5t-19 -39.5q-27 -38 -58 -38t-54 7t-39.5 19.5t-26 28.5t-9.5 37.5z" />
<glyph unicode="&#x2c6;" horiz-adv-x="999" d="M200 1275v32l233 373l133 -10l233 -363v-32l-125 -10l-193 252l-186 -252z" />
<glyph unicode="&#x2dc;" horiz-adv-x="1101" d="M150 1282v25q0 113 58.5 171t161.5 58q82 0 216 -66q50 -25 93 -45.5t72 -20.5q83 0 83 120l117 10v-47q0 -106 -53.5 -167.5t-154.5 -61.5q-73 0 -219 66q-56 25 -103 45.5t-71 20.5t-40.5 -4t-27.5 -15q-23 -23 -23 -79z" />
<glyph unicode="&#x2000;" horiz-adv-x="897" />
<glyph unicode="&#x2001;" horiz-adv-x="1794" />
<glyph unicode="&#x2002;" horiz-adv-x="897" />
<glyph unicode="&#x2003;" horiz-adv-x="1794" />
<glyph unicode="&#x2004;" horiz-adv-x="598" />
<glyph unicode="&#x2005;" horiz-adv-x="448" />
<glyph unicode="&#x2006;" horiz-adv-x="299" />
<glyph unicode="&#x2007;" horiz-adv-x="299" />
<glyph unicode="&#x2008;" horiz-adv-x="224" />
<glyph unicode="&#x2009;" horiz-adv-x="358" />
<glyph unicode="&#x200a;" horiz-adv-x="99" />
<glyph unicode="&#x2010;" horiz-adv-x="803" d="M60 520v147h693v-147h-693z" />
<glyph unicode="&#x2011;" horiz-adv-x="803" d="M60 520v147h693v-147h-693z" />
<glyph unicode="&#x2012;" horiz-adv-x="803" d="M60 520v147h693v-147h-693z" />
<glyph unicode="&#x2013;" horiz-adv-x="1141" d="M70 509l20 136h981l-20 -136h-981z" />
<glyph unicode="&#x2014;" horiz-adv-x="2035" d="M10 509l20 136h1975l-20 -136h-1975z" />
<glyph unicode="&#x2018;" horiz-adv-x="472" d="M60 1184q0 52 7 95t28 88q43 93 162 195l62 -73q-139 -116 -139 -205q0 -30 48 -42.5t76 -36t28 -54t-7.5 -59t-20.5 -50.5q-26 -47 -64 -47q-136 0 -168 98q-12 39 -12 91z" />
<glyph unicode="&#x2019;" horiz-adv-x="386" d="M48 1405.5q0 30.5 7.5 59t20.5 50.5q26 47 64 47q93 0 139 -48q41 -44 41 -147q0 -102 -28 -162q-50 -108 -169 -210l-62 73q139 116 139 205q0 30 -48 42.5t-76 36t-28 54z" />
<glyph unicode="&#x201a;" horiz-adv-x="472" d="M120 73.5q0 30.5 7.5 59t20.5 50.5q26 47 64 47q93 0 139 -48q41 -44 41 -147q0 -102 -28 -162q-50 -108 -169 -210l-62 73q139 116 139 205q0 30 -48 42.5t-76 36t-28 54z" />
<glyph unicode="&#x201c;" horiz-adv-x="822" d="M60 1184q0 52 7 95t28 88q43 93 162 195l62 -73q-139 -116 -139 -205q0 -30 48 -42.5t76 -36t28 -54t-7.5 -59t-20.5 -50.5q-26 -47 -64 -47q-136 0 -168 98q-12 39 -12 91zM410 1184q0 52 7 95t28 88q43 93 162 195l62 -73q-139 -116 -139 -205q0 -30 48 -42.5t76 -36 t28 -54t-7.5 -59t-20.5 -50.5q-26 -47 -64 -47q-136 0 -168 98q-12 39 -12 91z" />
<glyph unicode="&#x201d;" horiz-adv-x="736" d="M48 1405.5q0 30.5 7.5 59t20.5 50.5q26 47 64 47q93 0 139 -48q41 -44 41 -147q0 -102 -28 -162q-50 -108 -169 -210l-62 73q139 116 139 205q0 30 -48 42.5t-76 36t-28 54zM398 1405.5q0 30.5 7.5 59t20.5 50.5q26 47 64 47q93 0 139 -48q41 -44 41 -147 q0 -102 -28 -162q-50 -108 -169 -210l-62 73q139 116 139 205q0 30 -48 42.5t-76 36t-28 54z" />
<glyph unicode="&#x201e;" horiz-adv-x="823" d="M120 73.5q0 30.5 7.5 59t20.5 50.5q26 47 64 47q93 0 139 -48q41 -44 41 -147q0 -102 -28 -162q-50 -108 -169 -210l-62 73q139 116 139 205q0 30 -48 42.5t-76 36t-28 54zM471 73.5q0 30.5 7.5 59t19.5 50.5q27 47 65 47q93 0 139 -48q41 -44 41 -147q0 -102 -28 -162 q-50 -108 -169 -210l-62 73q139 116 139 205q0 30 -48 42.5t-76 36t-28 54z" />
<glyph unicode="&#x2022;" horiz-adv-x="740" d="M140 594.5q0 47.5 14 101.5t38 95q51 89 118 89t121 -14t93 -38q86 -52 86 -118t-14 -119t-38 -93q-52 -89 -119 -89t-120.5 14t-93.5 37.5t-62.5 55t-22.5 79z" />
<glyph unicode="&#x2026;" horiz-adv-x="1792" d="M140 85.5q0 27.5 8 59t22 55.5q31 51 69 51t69 -8t54 -22q50 -29 50 -68t-8 -69.5t-22 -53.5q-31 -52 -69.5 -52t-69.5 8t-54 22t-36 32t-13 45.5zM750 85.5q0 27.5 8 59t22 55.5q31 51 69 51t69 -8t54 -22q50 -29 50 -68t-8 -69.5t-22 -53.5q-31 -52 -69.5 -52t-69.5 8 t-54 22t-36 32t-13 45.5zM1360 85.5q0 27.5 8 59t22 55.5q31 51 69 51t69 -8t54 -22q50 -29 50 -68t-8 -69.5t-22 -53.5q-31 -52 -69.5 -52t-69.5 8t-54 22t-36 32t-13 45.5z" />
<glyph unicode="&#x202f;" horiz-adv-x="358" />
<glyph unicode="&#x2039;" horiz-adv-x="800" d="M150 536v60l395 421h85v-22l-300 -419v-20l300 -419v-22h-85z" />
<glyph unicode="&#x203a;" horiz-adv-x="800" d="M170 115v22l300 419v20l-300 419v22h85l395 -421v-60l-395 -421h-85z" />
<glyph unicode="&#x205f;" horiz-adv-x="448" />
<glyph unicode="&#x20ac;" horiz-adv-x="1200" d="M20 523l23 100h135q4 97 4 100h-162l23 100h149q40 271 188.5 411.5t402.5 140.5q203 0 363 -80v-287h-120l-48 217q-95 21 -195 21q-151 0 -249 -44q-45 -19 -77 -44q-62 -147 -82 -335h588l-23 -100h-572v-100h548l-23 -100h-525q8 -215 134 -323q110 -93 292.5 -93 t365.5 104v-106q-106 -69 -226.5 -98t-224 -29t-200 25.5t-170.5 87.5q-161 135 -161 424v8h-158z" />
<glyph unicode="&#x2122;" horiz-adv-x="1861" d="M150 1184l13 169h558l12 -169l-52 -11l-41 96h-137v-521l76 -17l-10 -55h-255l-10 55l77 17v521h-138l-41 -96zM794 731l76 17v533l-76 17l10 55h249l199 -524h5l191 524h253l10 -55l-76 -17v-533l76 -17l-10 -55h-254l-10 55l76 17v518h-5l-220 -590h-96l-230 591h-5 v-519l71 -17l-5 -55h-219z" />
<glyph unicode="&#xe000;" horiz-adv-x="1085" d="M0 0v1085h1085v-1085h-1085z" />
<glyph unicode="&#xfb01;" horiz-adv-x="1396" d="M96 987l20 98h143v108q0 185 77 277t222 92q93 0 177 -37l-43 -131q-123 41 -223 41q-30 -75 -30 -226v-124h214l20 -98l-234 -34v-821l213 -34l-20 -98h-506l-20 98l153 34v821zM842 98l153 34v821l-153 34l20 98l313 22v-975l153 -34l-20 -98h-446zM948 1409 q0 48 29.5 89.5t77.5 41.5t88.5 -29t40.5 -77.5t-29.5 -89.5t-77 -41t-88.5 29t-41 77z" />
<glyph unicode="&#xfb02;" horiz-adv-x="1376" d="M96 987l20 98h143v108q0 185 77 277t222 92q93 0 177 -37l-43 -131q-123 41 -223 41q-30 -75 -30 -226v-124h214l20 -98l-234 -34v-821l213 -34l-20 -98h-506l-20 98l153 34v821zM825 98l153 34v1276l-153 34l20 98l313 22v-1430l153 -34l-20 -98h-446z" />
</font>
</defs>
</svg>
